<svg width="557" height="500" fill="none" xmlns="http://www.w3.org/2000/svg"><g clip-path="url(#a)"><path d="m285.113 1.091-18.114 4.675L43.823 63.358 25.71 68.033A34.3 34.3 0 0 0 4.77 83.818a34.343 34.343 0 0 0-3.68 25.973l78.548 304.808a34.32 34.32 0 0 0 15.774 20.953 34.277 34.277 0 0 0 25.954 3.683l.047-.012 259.311-66.918.047-.012a34.304 34.304 0 0 0 20.938-15.785 34.34 34.34 0 0 0 3.68-25.973L326.842 25.727a34.32 34.32 0 0 0-15.774-20.953 34.277 34.277 0 0 0-25.955-3.683Z" fill="#F2F2F2"/><path d="m287.575 10.647-21.455 5.536L49.626 72.052l-21.455 5.537a24.426 24.426 0 0 0-14.91 11.24 24.455 24.455 0 0 0-2.622 18.496l78.549 304.808a24.439 24.439 0 0 0 11.233 14.921 24.406 24.406 0 0 0 18.483 2.623l.047-.012 259.31-66.918.047-.012a24.425 24.425 0 0 0 14.911-11.241 24.457 24.457 0 0 0 2.621-18.495L317.291 28.191a24.439 24.439 0 0 0-11.233-14.921 24.409 24.409 0 0 0-18.483-2.623Z" fill="#fff"/><path d="m271.375 109.351-131.179 33.853a5.705 5.705 0 0 1-6.949-4.103 5.71 5.71 0 0 1 4.1-6.954l131.179-33.852a5.7 5.7 0 0 1 4.32.614 5.712 5.712 0 0 1 2.014 7.814 5.703 5.703 0 0 1-3.485 2.628ZM298.97 122.128l-153.966 39.733a5.7 5.7 0 0 1-6.949-4.102 5.706 5.706 0 0 1 4.099-6.954l153.967-39.733a5.705 5.705 0 0 1 6.949 4.103 5.71 5.71 0 0 1-4.1 6.953ZM292.922 192.965l-131.179 33.852a5.705 5.705 0 0 1-6.338-8.429 5.691 5.691 0 0 1 3.489-2.627l131.179-33.852a5.7 5.7 0 0 1 5.983 2.095 5.71 5.71 0 0 1-3.134 8.961ZM320.518 205.742l-153.967 39.733a5.705 5.705 0 0 1-6.338-8.429 5.691 5.691 0 0 1 3.489-2.627l153.966-39.733a5.708 5.708 0 0 1 6.949 4.102 5.706 5.706 0 0 1-4.099 6.954ZM314.469 276.579 183.29 310.431a5.702 5.702 0 0 1-6.945-4.103 5.71 5.71 0 0 1 4.096-6.953l131.179-33.852a5.706 5.706 0 0 1 6.949 4.102 5.712 5.712 0 0 1-4.1 6.954ZM342.065 289.356l-153.967 39.732a5.706 5.706 0 0 1-4.326-.608 5.712 5.712 0 0 1 1.477-10.448l153.967-39.733a5.702 5.702 0 0 1 6.949 4.103 5.714 5.714 0 0 1-4.1 6.954Z" fill="#F2F2F2"/><path d="m117.802 177.914-46.423 11.98a2.742 2.742 0 0 1-3.332-1.967L57.39 146.575a2.743 2.743 0 0 1 1.966-3.334l46.423-11.98a2.74 2.74 0 0 1 3.332 1.967l10.656 41.352a2.737 2.737 0 0 1-1.965 3.334ZM139.349 261.528l-46.423 11.98a2.742 2.742 0 0 1-3.332-1.968l-10.657-41.351a2.743 2.743 0 0 1 1.966-3.335l46.423-11.98a2.744 2.744 0 0 1 2.073.294 2.744 2.744 0 0 1 1.259 1.673l10.656 41.352a2.741 2.741 0 0 1-1.965 3.335ZM160.896 345.141l-46.423 11.98a2.735 2.735 0 0 1-3.332-1.967l-10.657-41.352a2.74 2.74 0 0 1 1.966-3.334l46.423-11.98a2.735 2.735 0 0 1 3.332 1.967l10.657 41.352a2.74 2.74 0 0 1-1.966 3.334ZM466.034 78.355H198.143a34.287 34.287 0 0 0-24.214 10.053 34.335 34.335 0 0 0-10.045 24.23v314.78a34.337 34.337 0 0 0 10.045 24.231 34.286 34.286 0 0 0 24.214 10.052h267.891a34.282 34.282 0 0 0 24.213-10.052 34.333 34.333 0 0 0 10.046-24.231v-314.78a34.332 34.332 0 0 0-10.046-24.23 34.283 34.283 0 0 0-24.213-10.053Z" fill="#E6E6E6"/><path d="M466.034 88.224H198.143a24.416 24.416 0 0 0-17.243 7.159 24.451 24.451 0 0 0-7.154 17.255v314.78a24.451 24.451 0 0 0 7.154 17.255 24.415 24.415 0 0 0 17.243 7.159h267.891a24.415 24.415 0 0 0 17.243-7.159 24.451 24.451 0 0 0 7.154-17.255v-314.78a24.451 24.451 0 0 0-7.154-17.255 24.416 24.416 0 0 0-17.243-7.159Z" fill="#fff"/><path d="M494.178 500c34.539 0 62.538-28.019 62.538-62.582s-27.999-62.582-62.538-62.582-62.538 28.019-62.538 62.582S459.639 500 494.178 500Z" fill="#F48945"/><path d="M524.088 429.255h-21.753v-21.768a8.165 8.165 0 0 0-2.389-5.772 8.153 8.153 0 0 0-11.536 0 8.165 8.165 0 0 0-2.389 5.772v21.768h-21.753a8.166 8.166 0 0 0-5.767 13.935 8.15 8.15 0 0 0 5.767 2.391h21.753v21.767a8.163 8.163 0 0 0 8.157 8.163 8.163 8.163 0 0 0 8.157-8.163v-21.767h21.753c2.163 0 4.238-.86 5.768-2.391a8.165 8.165 0 0 0-5.768-13.935Z" fill="#fff"/><path d="M425.716 261.195h-135.47a5.706 5.706 0 0 1-4.038-9.748 5.694 5.694 0 0 1 4.038-1.67h135.47a5.707 5.707 0 0 1 4.03 9.744 5.7 5.7 0 0 1-4.03 1.674ZM449.25 280.463H290.246a5.688 5.688 0 0 1-2.185-.433 5.678 5.678 0 0 1-1.853-1.237 5.714 5.714 0 0 1 0-8.078 5.694 5.694 0 0 1 4.038-1.67H449.25a5.706 5.706 0 0 1 5.705 5.709 5.712 5.712 0 0 1-1.671 4.037 5.702 5.702 0 0 1-4.034 1.672ZM425.716 347.544h-135.47a5.706 5.706 0 0 1-4.038-9.748 5.71 5.71 0 0 1 4.038-1.67h135.47a5.706 5.706 0 0 1 5.706 5.709 5.714 5.714 0 0 1-1.671 4.037 5.702 5.702 0 0 1-4.035 1.672ZM449.25 366.812H290.246a5.706 5.706 0 0 1-4.038-9.748 5.71 5.71 0 0 1 4.038-1.67H449.25a5.707 5.707 0 0 1 5.276 7.896 5.71 5.71 0 0 1-5.276 3.522ZM259.9 289.21h-47.942a2.739 2.739 0 0 1-2.736-2.737v-42.705a2.741 2.741 0 0 1 2.736-2.738H259.9a2.74 2.74 0 0 1 2.735 2.738v42.705a2.738 2.738 0 0 1-2.735 2.737ZM259.9 375.559h-47.942a2.739 2.739 0 0 1-2.736-2.737v-42.705a2.741 2.741 0 0 1 2.736-2.737H259.9a2.734 2.734 0 0 1 2.735 2.737v42.705a2.738 2.738 0 0 1-2.735 2.737Z" fill="#E6E6E6"/><path d="M425.867 165.072H325.99a5.706 5.706 0 0 1-5.705-5.709 5.708 5.708 0 0 1 5.705-5.709h99.877a5.708 5.708 0 0 1 4.034 9.746 5.706 5.706 0 0 1-4.034 1.672ZM449.4 184.34H325.99a5.7 5.7 0 0 1-4.034-1.673 5.705 5.705 0 0 1-1.237-6.221 5.705 5.705 0 0 1 5.271-3.524H449.4a5.708 5.708 0 0 1 4.034 9.745 5.703 5.703 0 0 1-4.034 1.673Z" fill="#CCC"/><path d="M303.885 207.69h-92.078a2.74 2.74 0 0 1-2.735-2.737v-71.912a2.741 2.741 0 0 1 2.735-2.738h92.078a2.74 2.74 0 0 1 2.736 2.738v71.912a2.74 2.74 0 0 1-2.736 2.737Z" fill="#F48945"/></g><defs><clipPath id="a"><path fill="#fff" d="M0 0h556.716v500H0z"/></clipPath></defs></svg>