<svg fill="currentColor" xmlns="http://www.w3.org/2000/svg" viewBox="0 0 480.01 480.01"><path d="M426.891 214.158c-.477-.396-42.345-35.287-42.822-35.684l-8.866 7.6a8 8 0 0 1-10.413-12.148l14-12a8 8 0 0 1 10.328-.072l34.878 29.065V56c0-22.056-17.944-40-40-40s-40 17.944-40 40v416a8 8 0 0 1-16 0V56c0-15.658 6.467-29.828 16.862-40H95.996c-22.056 0-40 17.944-40 40v398.92l34.878-29.065a8 8 0 0 1 10.243 0l42.878 35.732 42.878-35.732a8 8 0 0 1 10.243 0l42.878 35.732 42.878-35.732a8 8 0 0 1 10.243 0l12.082 10.068a8 8 0 0 1 1.024 11.267 8 8 0 0 1-11.267 1.024l-6.96-5.801-42.878 35.732a8 8 0 0 1-10.243 0l-42.878-35.732-42.878 35.732a8 8 0 0 1-10.243 0l-42.878-35.732-42.878 35.732c-5.207 4.338-13.122.618-13.122-6.146V56c0-30.878 25.122-56 56-56h288c30.878 0 56 25.122 56 56 0 163.182.115 152.471-.24 153.913-1.411 5.749-8.357 7.985-12.865 4.245zM191.996 160c-4.411 0-8-3.589-8-8a8 8 0 0 0-16 0c0 9.27 5.286 17.324 13 21.32V178a8 8 0 0 0 16 0v-2.528c10.841-2.307 19-11.953 19-23.472v-3.237c0-10.554-6.768-19.76-16.841-22.907l-9.545-2.983a7.965 7.965 0 0 1-5.614-7.636V112c0-4.411 3.589-8 8-8s8 3.589 8 8a8 8 0 0 0 16 0c0-10.429-6.689-19.322-16-22.624V86a8 8 0 0 0-16 0v3.376c-9.311 3.302-16 12.195-16 22.624v3.237c0 10.554 6.768 19.76 16.841 22.907l9.545 2.983a7.965 7.965 0 0 1 5.614 7.636V152c0 4.411-3.589 8-8 8zm-72-20h14a8 8 0 0 0 0-16h-14a8 8 0 0 0 0 16zm144-16h-14a8 8 0 0 0 0 16h14a8 8 0 0 0 0-16zm0 114h-144a8 8 0 0 0 0 16h144a8 8 0 0 0 0-16zm0 72h-16a8 8 0 0 0 0 16h16a8 8 0 0 0 0-16zm-144 0a8 8 0 0 0 0 16h95.834a8 8 0 0 0 0-16h-95.834z"/></svg>