<svg fill="none" xmlns="http://www.w3.org/2000/svg" viewBox="0 0 36 36"><path d="M20.98 3.481a1.313 1.313 0 0 0-1.293 1.331v1.313h-6.125a3.942 3.942 0 0 0-3.937 3.938v7.874a3.942 3.942 0 0 0 3.938 3.938h14.874a3.942 3.942 0 0 0 3.938-3.938v-7.875a3.942 3.942 0 0 0-3.938-3.937h-6.125V4.812a1.313 1.313 0 0 0-1.332-1.33Zm-3.918 7.894a2.187 2.187 0 1 1 .001 4.374 2.187 2.187 0 0 1 0-4.374Zm7.875 0a2.187 2.187 0 1 1 .001 4.374 2.187 2.187 0 0 1 0-4.374Zm-14 13.125A3.942 3.942 0 0 0 7 28.438v.666c0 2.06.857 4.04 2.352 5.431C11.293 36.344 14.89 38.5 21 38.5c6.11 0 9.708-2.156 11.648-3.965A7.435 7.435 0 0 0 35 29.104v-.666a3.942 3.942 0 0 0-3.938-3.938H10.938Z" fill="#F48945"/></svg>