<svg width="721" height="500" fill="none" xmlns="http://www.w3.org/2000/svg"><g clip-path="url(#a)"><path d="M156.071 487.414h11.214l5.335-43.199-16.55.001.001 43.198Z" fill="#A0616A"/><path d="m153.211 483.758 22.084-.001h.001c3.733 0 7.312 1.481 9.952 4.117a14.048 14.048 0 0 1 4.122 9.939v.456l-36.158.002-.001-14.513Z" fill="#2F2E41"/><path d="M230.149 487.414h11.214l5.335-43.199-16.551.001.002 43.198Z" fill="#A0616A"/><path d="m227.288 483.758 22.084-.001h.001c3.733 0 7.312 1.481 9.952 4.117a14.048 14.048 0 0 1 4.122 9.939v.456l-36.158.002-.001-14.513Z" fill="#2F2E41"/><path d="M504.47 498.338H0V500h504.47v-1.662Z" fill="#E6E6E6"/><path d="M146.682 478.047h29.049l18.567-162.366 34.137 162.366h19.6V284.431l-93.19-27.854-8.163 221.47Z" fill="#2F2E41"/><path d="M196.212 113.718c13.991 0 25.333-11.327 25.333-25.3s-11.342-25.3-25.333-25.3c-13.991 0-25.332 11.327-25.332 25.3s11.341 25.3 25.332 25.3Z" fill="#A0616A"/><path d="M156.886 260.653c27.181 21.231 57.185 31.932 91.149 27.854-14.344-50.301-18.599-100.221-4.761-149.458l-28.57-12.908-32.114-2.038-23.34 6.856a15.614 15.614 0 0 0-8.181 5.74 15.575 15.575 0 0 0-3.015 9.52c.824 41.99-1.971 81.287 8.832 114.434Z" fill="#E6E6E6"/><path d="M171.967 75.695c2.437-4.592 5.534-13.745 10.453-15.442a39.144 39.144 0 0 1 8.419-1.791l8.361 3.211-4.551-3.534c.886-.053 1.772-.096 2.657-.13l5.641 2.167-2.886-2.242c5.259-.053 10.688.493 14.763 3.69 3.474 2.726 6.916 13.053 7.473 17.43.595 4.187.387 8.45-.614 12.559l-1.428 1.357a17.457 17.457 0 0 1-1.121-3.564 16.885 16.885 0 0 0-8.088-10.959l-.078-.043c-2.396-1.347-5.304-1.285-8.052-1.186l-13.05.469c-3.14.113-6.521.311-8.968 2.278-1.654 1.328-2.644 3.29-3.586 5.188-1.216 2.452-3.593 11.7-3.593 11.7s-1.345-1.746-1.99-.447a44.899 44.899 0 0 1-1.872-10.427 20.416 20.416 0 0 1 2.11-10.284Z" fill="#2F2E41"/><path d="M701.419 239.074h-292.45a18.89 18.89 0 0 1-13.33-5.523 18.846 18.846 0 0 1-5.531-13.313V18.836a18.847 18.847 0 0 1 5.531-13.313A18.891 18.891 0 0 1 408.969 0h292.45a18.893 18.893 0 0 1 13.33 5.523 18.847 18.847 0 0 1 5.531 13.313v201.402a18.846 18.846 0 0 1-5.531 13.313 18.891 18.891 0 0 1-13.33 5.523ZM408.969 1.663a17.228 17.228 0 0 0-12.154 5.035 17.18 17.18 0 0 0-5.042 12.138v201.402a17.18 17.18 0 0 0 5.042 12.138 17.226 17.226 0 0 0 12.154 5.036h292.45a17.226 17.226 0 0 0 12.154-5.036 17.184 17.184 0 0 0 5.042-12.138V18.836a17.184 17.184 0 0 0-5.042-12.138 17.228 17.228 0 0 0-12.154-5.035h-292.45Z" fill="#F0F0F0"/><path d="M359.312 255.983V54.581a18.016 18.016 0 0 1 5.287-12.726 18.058 18.058 0 0 1 12.741-5.28h292.451a18.06 18.06 0 0 1 12.742 5.28 18.011 18.011 0 0 1 5.286 12.726v201.402a18.01 18.01 0 0 1-5.286 12.725 18.061 18.061 0 0 1-12.742 5.28H377.34a18.059 18.059 0 0 1-12.741-5.28 18.015 18.015 0 0 1-5.287-12.725Z" fill="#E4E4E4"/><path d="M370.814 256.337V54.227a5.554 5.554 0 0 1 1.63-3.924 5.567 5.567 0 0 1 3.928-1.627h294.387a5.567 5.567 0 0 1 3.928 1.627 5.554 5.554 0 0 1 1.63 3.923v202.111a5.555 5.555 0 0 1-1.63 3.923 5.566 5.566 0 0 1-3.928 1.627H376.372a5.568 5.568 0 0 1-3.928-1.627 5.555 5.555 0 0 1-1.63-3.923Z" fill="#fff"/><path d="M489.43 315.695c4.524 0 8.192-3.663 8.192-8.182s-3.668-8.182-8.192-8.182c-4.525 0-8.193 3.663-8.193 8.182s3.668 8.182 8.193 8.182ZM523.565 315.695c4.525 0 8.193-3.663 8.193-8.182s-3.668-8.182-8.193-8.182c-4.524 0-8.192 3.663-8.192 8.182s3.668 8.182 8.192 8.182ZM557.701 315.695c4.525 0 8.193-3.663 8.193-8.182s-3.668-8.182-8.193-8.182c-4.524 0-8.192 3.663-8.192 8.182s3.668 8.182 8.192 8.182Z" fill="#E6E6E6"/><path d="M523.566 214.685a59.528 59.528 0 0 1-33.045-10.012 59.41 59.41 0 0 1-21.906-26.659 59.33 59.33 0 0 1-3.385-34.321 59.378 59.378 0 0 1 16.278-30.415 59.498 59.498 0 0 1 30.454-16.258 59.546 59.546 0 0 1 34.365 3.381 59.463 59.463 0 0 1 26.693 21.878 59.348 59.348 0 0 1 10.024 33.003 59.433 59.433 0 0 1-17.44 41.984 59.584 59.584 0 0 1-42.038 17.419Z" fill="#F48945"/><path d="M547.035 149.422h-17.602v-17.579a5.85 5.85 0 0 0-1.722-4.137 5.87 5.87 0 0 0-8.29 0 5.85 5.85 0 0 0-1.722 4.137v17.579h-17.602a5.87 5.87 0 0 0-4.142 1.72 5.855 5.855 0 0 0 0 8.28 5.87 5.87 0 0 0 4.142 1.719h17.602v17.58a5.854 5.854 0 0 0 1.722 4.137 5.874 5.874 0 0 0 8.29 0 5.854 5.854 0 0 0 1.722-4.137v-17.58h17.602a5.87 5.87 0 0 0 5.43-3.608 5.838 5.838 0 0 0 .007-4.488 5.873 5.873 0 0 0-5.421-3.623h-.016Z" fill="#fff"/><path d="M90.247 448.733a85.154 85.154 0 0 0-7.49-24.013l-.535-1.105-3.975 4.402 2.946-6.557-.193-.381a156.647 156.647 0 0 0-8.63-14.953l-.583-.893-.78.862.546-1.214-.273-.41c-3.9-5.842-6.897-9.537-6.927-9.575l-.847-1.041-.545 1.242c-.1.227-10.004 23.019-11.316 45.542l-.02.351 6.665 8.046-6.797-4.262.011 1.547a65.79 65.79 0 0 0 .54 7.916c.3 2.258.652 4.463 1.058 6.614a3.54 3.54 0 0 1 1.807.563 126.12 126.12 0 0 1-1.215-7.411 63.815 63.815 0 0 1-.494-6.136l13.149 8.245-13.021-15.719c1.185-19.042 8.544-38.226 10.61-43.29a151.61 151.61 0 0 1 5.701 7.948l-4.548 10.126 6.484-7.18c2.812 4.37 5.401 8.879 7.76 13.509l-7.004 15.593 9.469-10.487a83.366 83.366 0 0 1 6.8 22.378c1.658 12.503 1.335 24.514-.91 33.821-2.15 8.915-5.94 14.395-10.398 15.035a7.048 7.048 0 0 1-2.747-.163 4.08 4.08 0 0 1-2.465.751h-.243a9.66 9.66 0 0 0 4.514 1.211c.391 0 .781-.028 1.168-.084 5.241-.752 9.427-6.551 11.785-16.328 2.296-9.518 2.632-21.763.943-34.5Z" fill="#E6E6E6"/><path d="M75.579 498.988c-6.856 0-16.74-3.767-26.545-10.623a42.478 42.478 0 0 1-4.126-3.313l-1.098-1.002 4.152-1.194-5.529-.202-.233-.245C31.837 471.57 25.39 456.26 25.325 456.108l-.504-1.21 1.31.059c.13.006 3.246.153 7.928.816l.291.041v-.002l1.027.156c3.823.58 7.61 1.375 11.344 2.381l.399.108 1.245 3.064-.189-2.748 1.143.329a55.19 55.19 0 0 1 15.255 7.063c14.91 10.428 23.16 23.46 18.799 29.68-1.491 2.126-4.235 3.142-7.794 3.143ZM47.16 484.816c.911.771 1.859 1.504 2.83 2.188 13.657 9.551 28.32 13.162 32.019 7.888 3.698-5.275-4.716-17.801-18.374-27.353a53.413 53.413 0 0 0-13.634-6.496l.739 10.738-4.851-11.934a102.24 102.24 0 0 0-9.736-2.075l.537 7.794-3.34-8.213a103.321 103.321 0 0 0-5.94-.646c1.73 3.793 7.444 15.505 15.762 24.31l15.256.558-11.268 3.241Z" fill="#E6E6E6"/><path d="M172.818 277.239a8.668 8.668 0 0 0-6.487-8.35 8.697 8.697 0 0 0-3.761-.14l-15.202-26.818-6.273 12.841 14.529 24.699a8.72 8.72 0 0 0 3.556 5.076 8.74 8.74 0 0 0 11.499-1.493 8.712 8.712 0 0 0 2.139-5.815ZM240.796 307.053a8.661 8.661 0 0 1 1.717-10.429 8.683 8.683 0 0 1 3.238-1.914l.562-30.813 13.224 9.059-2.561 27.871a8.707 8.707 0 0 1-.703 6.155 8.74 8.74 0 0 1-10.821 4.164 8.733 8.733 0 0 1-4.656-4.093Z" fill="#A0616A"/><path d="m148.723 273.561 10.883-10.19-5.585-55.028 6.462-77.786c-14.037 4.406-29.11 16.243-31.593 30.728l-8.88 51.814 28.713 60.462Z" fill="#E6E6E6"/><path opacity=".2" d="m155.041 178.791-8.843 35.327 13.408 50.128-8.646-47.411 4.081-38.044Z" fill="#000"/><path d="m242.593 292.583 17.686 2.038-4.141-131.161a30.504 30.504 0 0 0-5.389-16.371 30.559 30.559 0 0 0-13.407-10.848l-6.312-2.627 1.7 61.482 9.863 97.487Z" fill="#E6E6E6"/><path opacity=".2" d="m235.972 197.105 6.826 75.697-11.558-75.169 4.732-.528Z" fill="#000"/></g><defs><clipPath id="a"><path fill="#fff" d="M0 0h720.28v500H0z"/></clipPath></defs></svg>