<svg width="603" height="500" fill="none" xmlns="http://www.w3.org/2000/svg"><g clip-path="url(#a)"><path d="M398.488 408.772H38.625V0h359.863v408.772Z" fill="#fff"/><path d="M398.488 408.772H38.625V0h359.863v408.772Zm-354.59-4.882h349.318V4.882H43.897V403.89Z" fill="#E6E6E6"/><path d="M398.635 0H39.231v52.291h359.404V0Z" fill="#F48945"/><path d="M90.76 129.827c16.899 0 30.599-13.676 30.599-30.546 0-16.87-13.7-30.545-30.6-30.545-16.899 0-30.599 13.675-30.599 30.545s13.7 30.546 30.6 30.546ZM250.775 77.72H145.958v8.984h104.817V77.72ZM376.952 99.281H145.958v8.984h230.994v-8.984ZM376.952 120.843H145.958v8.984h230.994v-8.984ZM90.76 379.852c16.899 0 30.599-13.676 30.599-30.545 0-16.87-13.7-30.546-30.6-30.546-16.899 0-30.599 13.676-30.599 30.546 0 16.869 13.7 30.545 30.6 30.545ZM250.775 327.745H145.958v8.984h104.817v-8.984ZM376.952 349.307H145.958v8.984h230.994v-8.984ZM376.952 370.868H145.958v8.984h230.994v-8.984Z" fill="#E6E6E6"/><path d="M95.86 13.361h-45.6v6.588h45.6v-6.588ZM95.86 24.74h-45.6v6.589h45.6v-6.588ZM95.86 36.12h-45.6v6.589h45.6V36.12ZM437.113 282.419H0V166.168h437.113v116.251Z" fill="#fff"/><path d="M437.113 282.419H0V166.168h437.113v116.251Zm-431.84-5.263H431.84V171.432H5.272v105.724Z" fill="#CCC"/><path d="M54.243 254.325c16.708 0 30.253-13.52 30.253-30.199 0-16.679-13.544-30.199-30.252-30.199-16.709 0-30.253 13.52-30.253 30.199 0 16.679 13.544 30.199 30.252 30.199Z" fill="#F48945"/><path d="M242.877 198.664H117.714v8.882h125.163v-8.882ZM393.547 219.981H117.714v8.882h275.833v-8.882ZM393.547 241.298H117.714v8.882h275.833v-8.882Z" fill="#3F3D56"/><path d="M507.04 313.063a7.824 7.824 0 0 1 1.186-.368l13.346-34.615-5.663-7.017 9.491-9.916c2.742 4.029 16.306 12.516 12.179 18.568L516.865 316.5a7.842 7.842 0 0 1 .399 6.847 7.864 7.864 0 0 1-5.138 4.553c-9.247 2.767-14.083-11.435-5.086-14.837Z" fill="#A0616A"/><path d="M519.67 277.931c-2.393.69-11.436-13.346-12.947-14.567a9.336 9.336 0 0 1-.386-13.195 9.375 9.375 0 0 1 13.217-.421l13.908 9.718a3.383 3.383 0 0 1 .516 5.07c-1.664 1.129-11.944 14.257-14.308 13.395Z" fill="#F48945"/><path d="m524.401 488.499-10.773-.001-1.61-41.48h12.385l-.002 41.481Z" fill="#A0616A"/><path d="m527.149 498.923-34.737-.001c-.326-18.354 23.172-13.35 34.737-13.934v13.935Z" fill="#2F2E41"/><path d="m559.488 484.959-10.701 1.238-9.881-40.614 15.795-1.829 4.787 41.205Z" fill="#A0616A"/><path d="m563.421 494.998-34.505 3.995c-2.443-18.194 21.477-15.927 32.897-17.838l1.608 13.843ZM526.329 478.651h-17.714v-66.649l-10.344-55.639-14.152-49.436 33.198-16.122 6.329 9.929c.98.891 16.84 15.542 18.551 30.059 1.744 14.796-15.1 142.067-15.818 147.477l-.05.381Z" fill="#2F2E41"/><path d="m485.32 317.281-5.469-23.929c-1.283-1.231-13.421-13.652.015-29.525l7.079-18.426 20.741-6.414 8.11 6.267a25.12 25.12 0 0 1 9.728 21.548l-2.215 33.855-37.989 16.624Z" fill="#2F2E41"/><path d="M503.078 199.296c21.374 12.142 3.827 44.176-17.945 32.769-21.373-12.141-3.826-44.175 17.945-32.769ZM444.282 242.46c.068.445.101.894.098 1.344l33.437 22.605 8.832-4.262 8.186 12.466c-4.945 1.908-17.278 14.161-22.683 8.312L438.224 252a8.574 8.574 0 0 1-7.361-1.259 8.54 8.54 0 0 1-3.567-6.55c-.664-10.451 15.586-12.076 16.986-1.731Z" fill="#A0616A"/><path d="M478.441 264.436c-.143-2.7 16.964-8.81 18.63-10.107a10.19 10.19 0 0 1 14.089 2.833 10.143 10.143 0 0 1 1.514 7.613 10.156 10.156 0 0 1-4.312 6.459l-13.722 12.313a3.708 3.708 0 0 1-2.912.896 3.69 3.69 0 0 1-2.593-1.597c-.789-2.035-12.188-16.124-10.694-18.41Z" fill="#F48945"/><path d="m540.508 465.438-21.982-54.968 14.645-21.016 32.194 74.095-24.857 1.889Z" fill="#2F2E41"/><path d="M601.606 500H456.614a.877.877 0 1 1 0-1.754h144.992a.877.877 0 1 1 0 1.754Z" fill="#CCC"/><path d="M560.392 215.246c-7.14 1.315-14.611-.859-20.73-4.761-6.118-3.903-11.034-9.419-15.396-15.213-2.456-3.261-4.831-6.702-8.174-9.049-3.343-2.347-7.968-3.388-11.539-1.404-3.148 1.75-4.536 6.343-2.688 9.218-4.96-1.241-10.22-.868-15.232.19-4.829 1.02-9.735 2.78-13.077 6.406-3.342 3.626-4.606 9.517-1.782 13.558l4.19.721c7.65-1.742 11.184-.968 18.834.774-.259-1.351 1.865-2.07 2.94-1.209 1.074.861.688 2.573 1.381 3.761 2.956 5.06 2.96 11.269 1.449 15.972 7.579-3.141 13.134-11.647 14.687-19.692a18.347 18.347 0 0 0-.814-10.527 14.952 14.952 0 0 0-2.537-4.027 20.073 20.073 0 0 1 7.676 4.244c3.902 3.388 6.724 7.811 9.844 11.928 3.12 4.118 6.762 8.108 11.555 10.047 7.35 2.973 16.079.372 22.113-4.765 4.708-4.009 8.036-9.323 10.686-14.95a20.49 20.49 0 0 1-5.799 5.747 20.534 20.534 0 0 1-7.587 3.031ZM573.778 206.468a16.13 16.13 0 0 0 2.095-4.804 94.957 94.957 0 0 1-2.095 4.804Z" fill="#2F2E41"/></g><defs><clipPath id="a"><path fill="#fff" d="M0 0h602.484v500H0z"/></clipPath></defs></svg>