<svg width="571" height="500" fill="none" xmlns="http://www.w3.org/2000/svg"><g clip-path="url(#a)"><path d="M570.922 118.819h-2.747v-75.26a43.534 43.534 0 0 0-12.773-30.801A43.633 43.633 0 0 0 524.566 0h-159.64a43.655 43.655 0 0 0-16.689 3.315 43.616 43.616 0 0 0-14.148 9.443 43.535 43.535 0 0 0-12.773 30.8v412.884a43.53 43.53 0 0 0 12.773 30.8A43.633 43.633 0 0 0 364.925 500h159.638a43.635 43.635 0 0 0 30.837-12.758 43.534 43.534 0 0 0 12.773-30.8V172.39h2.747l.002-53.571Z" fill="#3F3D56"/><path d="M559.281 40.64v418.718a33.017 33.017 0 0 1-9.685 23.353 33.094 33.094 0 0 1-23.378 9.678H363.303a33.097 33.097 0 0 1-23.391-9.672 33.018 33.018 0 0 1-9.694-23.359V40.641a33.016 33.016 0 0 1 9.694-23.359 33.097 33.097 0 0 1 23.39-9.672h19.762a15.698 15.698 0 0 0 7.164 19.776 15.745 15.745 0 0 0 7.385 1.85h92.88a15.742 15.742 0 0 0 7.385-1.85 15.711 15.711 0 0 0 8.24-12.248 15.686 15.686 0 0 0-1.076-7.528h21.169a33.093 33.093 0 0 1 23.38 9.674 33.013 33.013 0 0 1 9.69 23.35v.007Z" fill="#fff"/><path d="M446.497 208.154a69.983 69.983 0 0 1-49.462-20.441 69.821 69.821 0 0 1-20.506-49.386v-.062c0-.147 0-.301.009-.447.211-38.272 31.599-69.437 69.959-69.437a70.008 70.008 0 0 1 49.475 20.466 69.843 69.843 0 0 1 20.496 49.415 69.848 69.848 0 0 1-20.49 49.418 70.014 70.014 0 0 1-49.474 20.472h-.007v.002Zm0-138.303a68.68 68.68 0 0 0-48.244 19.942 68.517 68.517 0 0 0-20.242 48.072c-.008.156-.008.281-.008.4a68.377 68.377 0 0 0 11.54 38.015 68.486 68.486 0 0 0 30.741 25.205 68.582 68.582 0 0 0 39.578 3.899 68.529 68.529 0 0 0 35.077-18.722 68.398 68.398 0 0 0 18.753-35.031 68.344 68.344 0 0 0-3.894-39.534 68.44 68.44 0 0 0-25.226-30.71 68.56 68.56 0 0 0-38.057-11.536h-.018ZM518.848 281.63H374.079a2.68 2.68 0 0 1-2.681-2.678v-35.868a2.681 2.681 0 0 1 2.681-2.678h144.769a2.686 2.686 0 0 1 2.68 2.678v35.869a2.686 2.686 0 0 1-2.68 2.678v-.001Zm-144.769-40.153a1.613 1.613 0 0 0-1.609 1.607v35.869a1.606 1.606 0 0 0 1.609 1.607h144.769a1.61 1.61 0 0 0 1.608-1.607v-35.869a1.608 1.608 0 0 0-1.608-1.607H374.079Z" fill="#E6E6E6"/><path d="M418.85 253.521a1.875 1.875 0 1 0 0 3.749h88.469a1.875 1.875 0 1 0 .144-3.747l-.083-.002h-88.53ZM418.85 264.767a1.88 1.88 0 0 0-1.877 1.875 1.875 1.875 0 0 0 1.877 1.874h88.469c.246.01.492-.029.723-.115a1.865 1.865 0 0 0 1.225-1.686 1.873 1.873 0 0 0-1.092-1.776 1.887 1.887 0 0 0-.712-.17l-.083-.001h-88.53v-.001ZM518.848 341.612H374.079a2.68 2.68 0 0 1-2.681-2.678v-35.868a2.681 2.681 0 0 1 2.681-2.678h144.769a2.686 2.686 0 0 1 2.68 2.678v35.869a2.681 2.681 0 0 1-2.68 2.677Zm-144.769-40.153a1.613 1.613 0 0 0-1.609 1.607v35.869a1.613 1.613 0 0 0 1.609 1.607h144.769a1.608 1.608 0 0 0 1.608-1.607v-35.869a1.61 1.61 0 0 0-1.608-1.607H374.079Z" fill="#E6E6E6"/><path d="M418.85 313.5a1.875 1.875 0 1 0 0 3.749h88.469a1.879 1.879 0 0 0 1.866-1.844 1.872 1.872 0 0 0-1.805-1.904h-88.53v-.001ZM418.85 324.749a1.88 1.88 0 0 0-1.877 1.875 1.875 1.875 0 0 0 1.877 1.874h88.469a1.874 1.874 0 0 0 .061-3.748h-88.53v-.001ZM518.848 401.593H374.079a2.688 2.688 0 0 1-1.895-.786 2.677 2.677 0 0 1-.786-1.892v-35.868a2.683 2.683 0 0 1 2.681-2.678h144.769a2.685 2.685 0 0 1 2.68 2.678v35.869a2.685 2.685 0 0 1-2.68 2.677ZM374.079 361.44a1.608 1.608 0 0 0-1.609 1.607v35.869c0 .426.17.834.472 1.135.301.302.71.471 1.137.471h144.769a1.608 1.608 0 0 0 1.608-1.606v-35.869a1.608 1.608 0 0 0-1.608-1.607H374.079Z" fill="#E6E6E6"/><path d="M418.85 373.483a1.875 1.875 0 1 0 0 3.749h88.469a1.875 1.875 0 1 0 .144-3.747l-.083-.002h-88.53ZM418.85 384.73a1.875 1.875 0 1 0 0 3.749h88.469a1.875 1.875 0 1 0 .144-3.747c-.028-.001-.055-.002-.083-.001h-88.53v-.001Z" fill="#E6E6E6"/><path d="M468.605 136.569H448.2v-20.381h-3.401v20.381h-20.405v3.397h20.405v20.381h3.401v-20.381h20.405v-3.397Z" fill="#F48945"/><path d="M155.254 392.869s-16.684 18.252-19.068 60.311c-2.383 42.058-3.178 46.82-3.178 46.82h59.588l11.117-28.565 12.715 28.563h56.409s6.356-87.292 0-89.673c-6.356-2.381-117.583-17.456-117.583-17.456Z" fill="#2F2E41"/><path d="M235.099 178.21c15.796 0 28.601-12.79 28.601-28.567 0-15.778-12.805-28.568-28.601-28.568s-28.601 12.79-28.601 28.568c0 15.777 12.805 28.567 28.601 28.567ZM358.643 393.666l-43.697-79.357-25.427-41.265 30.193-13.491 16.685 32.536s22.246 32.536 27.807 59.518 11.123 39.678 11.123 39.678l-16.684 2.381ZM117.908 370.65l65.148-57.137-3.174-46.027h-18.274l-5.564 23.807-52.436 69.04 14.3 10.317Z" fill="#FFB8B8"/><path d="M202.127 192.1s23.596 9.88 41.193-2.202c0 0 43.023 6.965 45.406 9.344 2.384 2.38-2.383 73.799-2.383 73.799l-9.533 40.474s13.507 61.897-6.356 77.769l3.973 21.426s-88.188 6.349-123.146-15.078l6.354-21.427 16.685-67.453-10.329-93.638s7.942-21.427 38.136-23.014Z" fill="#E4E4E4"/><path d="m268.467 202.812 20.657-3.172s10.329 1.587 19.863 21.427c9.534 19.839 19.862 46.026 19.862 46.026l-35.752 15.871-29.395-46.026 4.765-34.126ZM168.76 211.145l-4.767 3.968s-6.356 23.013-6.356 38.884v21.426l28.602 3.175-17.479-67.453Z" fill="#E4E4E4"/><path d="M206.505 157.396s-3.888-4.194-3.494-9.443c.26-2.986.068-5.995-.567-8.924 0 0 1.217-8.592 3.014-13.573 1.797-4.981.282-6.714 8.006-9.433 7.723-2.719 2.806-12.552 25.577-4.714a6.226 6.226 0 0 0 3.178 1.718 6.243 6.243 0 0 0 3.597-.333c4.204-1.538 6.738 4.231 6.738 4.231s2.622-2.149 4.094.085c1.471 2.234 8.588-2.858 11.199 13.396 2.611 16.253-6.349 30.748-6.349 30.748s-1.258-26.009-16.046-26.481c-14.788-.473-31.512-6.067-33.587 4.885-2.074 10.953-5.36 17.838-5.36 17.838Z" fill="#2F2E41"/><path d="M107.486 382.804c6.808 0 12.326-5.512 12.326-12.311 0-6.8-5.518-12.312-12.326-12.312-6.807 0-12.326 5.512-12.326 12.312 0 6.799 5.519 12.311 12.326 12.311Z" fill="#FFB8B8"/><path d="m18.626 453.646 203.004-40.475-16.965-84.887L1.661 368.757l16.965 84.889Z" fill="#fff"/><path d="M223.291 414.28 17.518 455.309 0 367.65l205.773-41.027 17.518 87.657ZM19.736 451.988l200.234-39.922-16.414-82.124L3.323 369.866l16.413 82.122Z" fill="#E4E4E4"/><path d="m84.816 426.665-.083.035c-.662.272-1.333.529-2.022.755-.232.079-.472.151-.705.222-.233.07-.473.144-.714.209a22.93 22.93 0 0 1-1.197.306c-.173.044-.355.082-.53.119l-.104.023a23.75 23.75 0 0 1-.65.131l-.563.098a30.006 30.006 0 0 1-25.336-7.571 29.939 29.939 0 0 1-7.55-11.084 29.906 29.906 0 0 1 2.09-26.049 29.956 29.956 0 0 1 9.221-9.741 30.004 30.004 0 0 1 25.921-3.544 29.94 29.94 0 0 0-8.422 12.99 29.906 29.906 0 0 0 6.227 29.246 29.97 29.97 0 0 0 12.986 8.441 29.85 29.85 0 0 1-8.567 5.416l-.002-.002Z" fill="#F48945"/><path d="M127.67 411.437a29.325 29.325 0 0 0 4.061 1.666 29.827 29.827 0 0 1-13.819 7.061l-.377.08a30.003 30.003 0 0 1-25.568-6.761 29.949 29.949 0 0 1-7.962-10.986 29.908 29.908 0 0 1 1.553-26.373 29.965 29.965 0 0 1 21.857-14.878 30.004 30.004 0 0 1 13.526 1.181 29.879 29.879 0 0 0-8.094 11.946 29.847 29.847 0 0 0 3.808 27.736 29.908 29.908 0 0 0 11.015 9.328Z" fill="#F48945"/><path d="M179.335 376.509a29.913 29.913 0 0 1-1.477 17.32 29.946 29.946 0 0 1-10.862 13.581 30.002 30.002 0 0 1-33.304.439 29.939 29.939 0 0 1-11.216-13.29 29.911 29.911 0 0 1 6.065-32.711 29.992 29.992 0 0 1 26.933-8.55 29.997 29.997 0 0 1 19.243 12.478 29.923 29.923 0 0 1 4.618 10.733Z" fill="#F48945"/><path d="M166.782 403.226a20.01 20.01 0 0 1 .442 4.031 30.05 30.05 0 0 1-22.938 4.873 19.981 19.981 0 0 1-1.239-3.862c-1.467-6.889.807-13.457 5.228-16.429a9.267 9.267 0 0 1-7.538-9.005 9.276 9.276 0 0 1 7.348-9.162 9.29 9.29 0 0 1 6.184.829 9.275 9.275 0 0 1 4.26 4.553 9.26 9.26 0 0 1-3.217 11.29c5.252.917 10.003 5.993 11.47 12.882ZM127.671 411.44l.019.09c.252 1.665.366 3.347.341 5.03-3.105 2.175-6.575 2.803-10.495 3.687l-.377.08c-3.94.842-8.01.878-11.965.107-.054-.113-.1-.23-.14-.349a19.207 19.207 0 0 1-1.098-3.513c-1.467-6.889.807-13.457 5.229-16.429a9.267 9.267 0 0 1-7.54-9.004 9.265 9.265 0 0 1 7.349-9.161 8.973 8.973 0 0 1 2.162-.197c-.58 6.033.688 12.1 3.638 17.397a29.926 29.926 0 0 0 12.878 12.263l-.001-.001ZM90.066 419.945c.237 1.193.362 2.407.37 3.624a29.9 29.9 0 0 1-7.724 3.885c-.232.078-.472.151-.705.222-.233.07-.473.144-.714.209a22.93 22.93 0 0 1-1.197.306c-.083.025-.173.044-.257.062l-.377.08a23.75 23.75 0 0 1-.65.131l-.563.098a4.429 4.429 0 0 1-.31.051c-3.464.559-6.999.5-10.442-.172a.127.127 0 0 1-.017-.048 2.245 2.245 0 0 1-.123-.302 19.167 19.167 0 0 1-1.098-3.512c-1.466-6.889.807-13.458 5.229-16.429a9.283 9.283 0 0 1-5.38-3.158 9.258 9.258 0 0 1-.123-11.738 9.278 9.278 0 0 1 6.84-3.463 29.88 29.88 0 0 0 3.79 17.832 29.93 29.93 0 0 0 13.451 12.321v.001Z" fill="#fff"/><path d="M398.912 266.399c0 .677-.068 1.353-.204 2.017a15.028 15.028 0 0 1-11.727 0 10.053 10.053 0 0 1-.204-2.017c0-3.522 1.796-6.499 4.269-7.493a4.64 4.64 0 0 1-2.75-5.188 4.64 4.64 0 0 1 9.096 0 4.63 4.63 0 0 1-2.749 5.188c2.473.994 4.269 3.971 4.269 7.493ZM398.912 327.596c0 .677-.068 1.353-.204 2.017a15.028 15.028 0 0 1-11.727 0 10.053 10.053 0 0 1-.204-2.017c0-3.522 1.796-6.499 4.269-7.494a4.633 4.633 0 0 1 1.798-8.905 4.643 4.643 0 0 1 4.548 3.717 4.631 4.631 0 0 1-2.749 5.188c2.473.995 4.269 3.972 4.269 7.494ZM398.912 387.576c0 .677-.068 1.353-.204 2.017a15.028 15.028 0 0 1-11.727 0 10.053 10.053 0 0 1-.204-2.017c0-3.522 1.796-6.499 4.269-7.494a4.633 4.633 0 0 1 1.798-8.905 4.643 4.643 0 0 1 4.548 3.717 4.631 4.631 0 0 1-2.749 5.188c2.473.995 4.269 3.972 4.269 7.494Z" fill="#F48945"/><path d="M367.742 408.131c6.224 0 11.269-5.04 11.269-11.256 0-6.217-5.045-11.257-11.269-11.257s-11.27 5.04-11.27 11.257c0 6.216 5.046 11.256 11.27 11.256Z" fill="#FFB8B8"/></g><defs><clipPath id="a"><path fill="#fff" d="M0 0h570.922v500H0z"/></clipPath></defs></svg>