<svg xmlns="http://www.w3.org/2000/svg" viewBox="0 0 48 48" fill="currentColor"><linearGradient id="a" x1="43.894" x2="11.857" y1="43.894" y2="11.857" gradientUnits="userSpaceOnUse"><stop offset="0" stop-color="#fff"/><stop offset=".242" stop-color="#f2f2f2"/><stop offset="1" stop-color="#ccc"/></linearGradient><path fill="url(#a)" d="M24 4C12.954 4 4 12.954 4 24s8.954 20 20 20 20-8.954 20-20S35.046 4 24 4zm0 35c-8.284 0-15-6.716-15-15 0-8.284 6.716-15 15-15 8.284 0 15 6.716 15 15 0 8.284-6.716 15-15 15z"/><linearGradient id="b" x1="3.814" x2="32.654" y1="3.814" y2="32.654" gradientUnits="userSpaceOnUse"><stop offset="0" stop-color="#21ad64"/><stop offset="1" stop-color="currentColor"/></linearGradient><path fill="url(#b)" d="M24 5.029v3.002c0 .54.429.965.968.999 8.064.514 14.396 7.4 14.016 15.677-.351 7.638-6.636 13.924-14.275 14.276-8.278.381-15.164-5.951-15.678-14.016-.035-.538-.46-.967-1-.967H5.029c-.564 0-1.032.467-1.003 1.03.554 10.92 9.866 19.529 21.051 18.942 10.095-.529 18.365-8.8 18.894-18.895.587-11.186-8.022-20.497-18.941-21.051-.563-.028-1.03.44-1.03 1.003z"/></svg>