<svg width="509" height="500" fill="none" xmlns="http://www.w3.org/2000/svg"><path d="m92.023 139.842 35.632 17.816a45.874 45.874 0 0 0 41.155-2.227l33.673-21.914a45.33 45.33 0 0 0 13.761-16.103 45.325 45.325 0 0 0 4.945-20.598l-2.137-40.175a45.605 45.605 0 0 0-22.449-34.474L160.971 3.905a45.607 45.607 0 0 0-41.155 2.138L86.144 27.957a45.52 45.52 0 0 0-18.708 36.701l2.138 40.175a45.528 45.528 0 0 0 22.449 35.009Z" fill="#0040FF"/><path d="m306.968 191.866-35.632-18.262a45.705 45.705 0 0 0-41.066 2.227l-34.029 21.914a45.878 45.878 0 0 0-18.707 36.701l2.139 40.175a45.604 45.604 0 0 0 22.447 34.475l35.632 17.816a45.444 45.444 0 0 0 41.066-2.138l33.762-21.914a46.05 46.05 0 0 0 18.707-36.79l-2.138-40.086a45.79 45.79 0 0 0-22.181-34.118Z" fill="url(#a)"/><path d="m416.896 361.297-35.632-17.816a45.6 45.6 0 0 0-41.155 2.138l-33.672 21.914a45.696 45.696 0 0 0-18.708 36.701l2.139 40.175a45.771 45.771 0 0 0 7.169 19.572 45.78 45.78 0 0 0 15.101 14.368l35.633 17.816a45.876 45.876 0 0 0 41.155-2.227l33.76-21.914a45.522 45.522 0 0 0 18.619-36.701l-1.872-39.462a45.505 45.505 0 0 0-22.537-34.564Z" fill="#F48945"/><path d="m154.376 261.526-1.692-31.267a45.868 45.868 0 0 1 18.706-36.701l65.653-42.67a45.689 45.689 0 0 1 41.066-2.227l27.971 14.253a45.61 45.61 0 0 0 41.155-2.138l33.672-22.003a45.597 45.597 0 0 0 18.707-36.701l-2.138-40.086a45.612 45.612 0 0 0-22.448-34.563L339.396 9.16a45.884 45.884 0 0 0-41.155 2.227l-34.385 21.558a45.526 45.526 0 0 0-18.618 36.7l1.604 31.268a45.514 45.514 0 0 1-4.926 20.575 45.513 45.513 0 0 1-13.692 16.126l-65.652 42.67a45.612 45.612 0 0 1-41.156 2.138l-27.882-14.164a45.598 45.598 0 0 0-20.833-3.844 45.595 45.595 0 0 0-20.322 5.982L18.707 192.31A45.53 45.53 0 0 0 0 229.012l2.138 40.175a45.525 45.525 0 0 0 22.448 34.563l35.632 17.816a45.864 45.864 0 0 0 41.155-2.227l33.673-21.914a45.608 45.608 0 0 0 19.33-35.899Z" fill="#0040FF"/><path d="M507.047 231.418a45.978 45.978 0 0 0-22.448-34.563l-35.633-17.816a45.955 45.955 0 0 0-41.155 2.227l-33.673 21.914a45.701 45.701 0 0 0-18.706 36.701l1.693 31.356a45.699 45.699 0 0 1-18.708 36.701l-65.563 42.581a45.886 45.886 0 0 1-41.155 2.227l-27.972-14.253a45.688 45.688 0 0 0-41.066 2.227l-34.028 21.824a45.875 45.875 0 0 0-18.706 36.702l2.137 40.174a45.617 45.617 0 0 0 22.449 34.475l35.632 18.261a45.422 45.422 0 0 0 41.066-2.138l33.761-21.914a45.957 45.957 0 0 0 18.707-36.7l-1.692-31.358a45.603 45.603 0 0 1 18.706-36.701l65.563-42.668a45.614 45.614 0 0 1 41.155-2.139l27.882 14.165a45.615 45.615 0 0 0 41.155-2.138l33.763-21.914a45.616 45.616 0 0 0 18.616-36.701l-1.78-40.532Z" fill="#F48945"/><defs><linearGradient id="a" x1="254.41" y1="169.77" x2="254.41" y2="330.817" gradientUnits="userSpaceOnUse"><stop stop-color="#0040FF"/><stop offset="1" stop-color="#F48945"/></linearGradient></defs></svg>