<svg width="920" height="500" fill="none" xmlns="http://www.w3.org/2000/svg"><g clip-path="url(#a)"><path d="M462.697 500c249.328 0 451.448-13.381 451.448-29.887s-202.12-29.887-451.448-29.887c-249.328 0-451.449 13.381-451.449 29.887S213.37 500 462.697 500Z" fill="#F2F2F2"/><path d="M445.394 142.931c-73.553 0-126.364 47.19-126.364 157.299 0 124.791 52.811 157.824 126.364 157.824s129.509-36.179 129.509-157.824c0-130.034-55.956-157.299-129.509-157.299Zm.483 273.701c-50.944 0-77.56-29.888-77.56-116.321 0-76.264 27.705-116.482 78.65-116.482 50.944 0 78.649 26.417 78.649 116.482 0 84.254-28.794 116.321-79.739 116.321Z" fill="#2F2E41"/><path d="M274.987 371.015h-30.412v-89.553a17.931 17.931 0 0 0-17.934-17.935h-7.126a17.94 17.94 0 0 0-16.57 11.072 17.936 17.936 0 0 0-1.365 6.863v89.553h-85.779a10.236 10.236 0 0 1-10.235-9.951 10.254 10.254 0 0 1 1.182-5.071l90.788-171.833a17.93 17.93 0 0 0-8.199-24.595l-5.359-2.531a17.936 17.936 0 0 0-23.475 7.762L49.775 371.934a24.318 24.318 0 0 0 21.447 35.784H201.58v56.628a21.509 21.509 0 0 0 13.271 19.861 21.508 21.508 0 0 0 23.428-4.66 21.509 21.509 0 0 0 6.296-15.201v-56.628h30.411a18.354 18.354 0 0 0 18.352-18.352 18.348 18.348 0 0 0-18.351-18.351ZM838.117 371.015h-30.411v-89.553a17.936 17.936 0 0 0-17.935-17.935h-7.126a17.94 17.94 0 0 0-12.681 5.253 17.936 17.936 0 0 0-5.253 12.682v89.553h-85.78a10.242 10.242 0 0 1-8.769-4.954 10.24 10.24 0 0 1-.283-10.068l90.788-171.833a17.912 17.912 0 0 0 2.016-6.906 17.921 17.921 0 0 0-4.458-13.374 17.93 17.93 0 0 0-5.757-4.315l-5.36-2.531a17.935 17.935 0 0 0-23.475 7.762L612.905 371.934a24.322 24.322 0 0 0 21.447 35.784h130.359v56.628a21.501 21.501 0 0 0 6.296 15.201 21.497 21.497 0 0 0 36.699-15.201v-56.628h30.411a18.352 18.352 0 0 0 18.351-18.352 18.348 18.348 0 0 0-18.351-18.351Z" fill="#F48945"/><path d="M283.376 360.528h-30.411v-89.553a17.942 17.942 0 0 0-5.253-12.682 17.942 17.942 0 0 0-12.682-5.252h-7.126a17.934 17.934 0 0 0-17.934 17.934v89.553h-85.78a10.24 10.24 0 0 1-9.053-15.021l90.789-171.833a17.94 17.94 0 0 0-8.2-24.596l-5.359-2.531a17.935 17.935 0 0 0-23.475 7.763L58.164 361.448a24.317 24.317 0 0 0 21.447 35.783H209.97v56.628a21.508 21.508 0 0 0 6.296 15.201 21.494 21.494 0 0 0 15.201 6.296 21.498 21.498 0 0 0 21.498-21.497v-56.628h30.411a18.34 18.34 0 0 0 12.976-5.375 18.35 18.35 0 0 0 5.375-12.976 18.344 18.344 0 0 0-11.328-16.955 18.359 18.359 0 0 0-7.023-1.397ZM853.847 360.528h-30.411v-89.553a17.936 17.936 0 0 0-17.935-17.934h-7.126a17.92 17.92 0 0 0-12.681 5.252 17.93 17.93 0 0 0-5.253 12.682v89.553h-85.78a10.24 10.24 0 0 1-9.052-15.021l90.788-171.833a17.94 17.94 0 0 0-8.2-24.596l-5.359-2.531a17.935 17.935 0 0 0-23.475 7.763L628.635 361.448a24.316 24.316 0 0 0 21.447 35.783h130.359v56.628a21.497 21.497 0 0 0 21.497 21.497 21.498 21.498 0 0 0 21.498-21.497v-56.628h30.411a18.34 18.34 0 0 0 12.976-5.375 18.35 18.35 0 0 0 5.375-12.976 18.352 18.352 0 0 0-18.351-18.352ZM462.172 133.493c-73.553 0-126.363 47.19-126.363 157.299 0 124.791 52.81 157.824 126.363 157.824 73.554 0 129.51-36.179 129.51-157.824 0-130.034-55.956-157.299-129.51-157.299Zm.484 273.701c-50.945 0-77.56-29.888-77.56-116.321 0-76.264 27.705-116.482 78.649-116.482 50.945 0 78.65 26.417 78.65 116.482 0 84.254-28.794 116.321-79.739 116.321Z" stroke="#3F3D56" stroke-miterlimit="10"/><path d="M403.215 26.66c6.098 0 11.041-4.943 11.041-11.04 0-6.099-4.943-11.042-11.041-11.042-6.098 0-11.041 4.943-11.041 11.041 0 6.098 4.943 11.041 11.041 11.041Z" fill="#2F2E41"/><path d="M430.144 80.25c17.104 0 30.969-17.964 30.969-40.125C461.113 17.965 447.248 0 430.144 0c-17.103 0-30.969 17.965-30.969 40.125s13.866 40.125 30.969 40.125Z" fill="#2F2E41"/><path opacity=".1" d="M430.144 68.132c-15.514 0-28.363-14.78-30.617-34.066a52.21 52.21 0 0 0-.352 6.06c0 22.16 13.866 40.124 30.969 40.124 17.104 0 30.969-17.964 30.969-40.125a51.988 51.988 0 0 0-.351-6.059c-2.254 19.285-15.104 34.066-30.618 34.066Z" fill="#000"/><path d="M493.163 157.634c-.665 2.733-3.533 4.921-6.709 6.451-6.677 3.215-14.913 4.174-22.901 4.496a38.657 38.657 0 0 1-6.115-.113 17.581 17.581 0 0 1-10.484-4.819 1.436 1.436 0 0 1-.463-1.92c.12-.211.293-.388.5-.514 4.253-4.672 11.35-7.536 18.5-9.599 5.421-1.564 14.875-5.615 20.788-5.068 5.727.529 7.724 7.635 6.884 11.086Z" fill="#3F3D56"/><path opacity=".1" d="M493.163 157.634c-.665 2.733-3.533 4.921-6.709 6.451-6.677 3.215-14.913 4.174-22.901 4.496a38.657 38.657 0 0 1-6.115-.113 17.581 17.581 0 0 1-10.484-4.819 1.436 1.436 0 0 1-.463-1.92c.12-.211.293-.388.5-.514 4.253-4.672 11.35-7.536 18.5-9.599 5.421-1.564 14.875-5.615 20.788-5.068 5.727.529 7.724 7.635 6.884 11.086Z" fill="#000"/><path d="M408.266 137.207a16.919 16.919 0 0 0-1.025 12.902 22.54 22.54 0 0 0 7.556 10.695c8.639 6.925 20.529 7.878 31.601 7.782a243.787 243.787 0 0 0 29.017-1.989 34.716 34.716 0 0 0 9.415-2.186c3.614-1.564 6.789-4.432 8.076-8.153 1.286-3.721.373-8.278-2.682-10.761-2.685-2.182-6.387-2.482-9.84-2.69l-19.759-1.187c1.952-1.976 4.551-3.093 6.928-4.53 3.154-1.905 5.25-5.104 7.543-7.988a110.342 110.342 0 0 1 11.501-11.825c.643 3.689 2.977 6.718 5.723 9.263 2.747 2.545 5.913 4.595 8.767 7.018 6.914 5.87 11.893 13.836 19.164 19.256a37.495 37.495 0 0 0 13.735-6.857l-2.826-5.119a3.385 3.385 0 0 0-1.065-1.329c-.8-.492-1.832-.238-2.76-.377-2.483-.373-3.567-3.239-4.541-5.552-2.675-6.352-7.795-11.28-12.168-16.607a83.884 83.884 0 0 1-8.555-12.6c-1.469-2.654-2.814-5.418-4.808-7.705-1.993-2.287-4.787-4.085-7.821-4.091-2.68-.006-5.153 1.355-7.457 2.724a197.247 197.247 0 0 0-20.224 13.778c-3.375 2.62-6.729 5.388-10.688 6.995-1.667.677-3.424 1.139-5.023 1.962-2.802 1.441-4.928 3.881-7.216 6.046-8.163 7.722-19.338 12.725-30.568 13.125Z" fill="#3F3D56"/><path d="M449.582 82.243a20.352 20.352 0 0 1-1.484 6.875 8.597 8.597 0 0 1-4.936 4.77 10.59 10.59 0 0 1-4.812.156 9.31 9.31 0 0 1-3.921-1.336c-1.853-1.274-2.777-3.547-3.113-5.771-.337-2.222-.186-4.492-.401-6.73a36.76 36.76 0 0 0-1.029-5.353c-.146-.585-.294-1.166-.439-1.748a78.649 78.649 0 0 1-.412-1.745 36.799 36.799 0 0 1-.323-1.648 25.375 25.375 0 0 1-.2-1.406 15.728 15.728 0 0 0-.692-4.118 12.52 12.52 0 0 0-1.443-2.442c-.245-.35-.482-.7-.7-1.064a5.04 5.04 0 0 1-.832-3.207 2.84 2.84 0 0 1 .199-.706 1.54 1.54 0 0 0 1.053-.983 2.94 2.94 0 0 0-.127-1.521 9.655 9.655 0 0 0-.821-1.958c-.226-.41-.994-1.147-.999-1.616-.011-.942 1.831-1.702 2.577-2.073a14.375 14.375 0 0 1 7.357-1.492c1.629.11 3.396.611 4.296 1.976.807 1.231.7 2.825 1.044 4.255.037.208.125.404.256.569.176.16.397.261.633.29.399.08.808.096 1.212.049h.003a4.246 4.246 0 0 0 2.057-.797 10.914 10.914 0 0 1 1.05-.227c1.349 4.258 1.525 8.823 2.629 13.158.546 2.157 1.33 4.288 1.44 6.507.008.097.011.196.014.296.016.713-.041 1.432-.011 2.143.01.32.046.64.108.954.121.505.271 1.004.45 1.492l.008.024a6.1 6.1 0 0 1 .218.819l.002.008c.2 1.19.23 2.402.089 3.6Z" fill="#FBBEBE"/><path d="M430.683 54.398c8.775 0 15.888-7.114 15.888-15.889 0-8.775-7.113-15.888-15.888-15.888-8.775 0-15.889 7.113-15.889 15.888 0 8.775 7.114 15.889 15.889 15.889ZM531.556 125.077a26.048 26.048 0 0 0-4.481-12.069c.412 2.45.825 4.9 1.239 7.349a2.753 2.753 0 0 1-2.882-.886 8.828 8.828 0 0 1-1.51-2.804 57.784 57.784 0 0 0-7.026-12.611c-10.115-.843-20.114-5.036-29.009-9.923-8.898-4.885-17.224-10.743-26.003-15.835a37.327 37.327 0 0 0-4.745-2.424c-2.747-1.101-5.831-1.672-8.435-2.967-.175-.087-.35-.178-.522-.272a10.742 10.742 0 0 1-1.664-1.118 8.706 8.706 0 0 1-.797-.732 17.4 17.4 0 0 1-3.046-5.096c-1.398-3.091-1.896-6.82-3.291-9.912a9.574 9.574 0 0 1 2.141-1.511h.003a10.222 10.222 0 0 1 3.067-1.015 9.9 9.9 0 0 1 4.74.363c2.213.749 4.079 2.243 5.94 3.657a97.596 97.596 0 0 1 8.685 6.889c1.535 1.47 2.935 3.086 4.586 4.422a36.057 36.057 0 0 0 4.328 2.868c8.932 5.321 17.866 10.641 26.8 15.96 3.024 1.803 6.051 3.604 9.008 5.51 4.492 2.898 8.822 6.038 13.15 9.176 2.55 1.847 5.099 3.695 7.648 5.544a8.343 8.343 0 0 1 2.168 2.004c.528.899.856 1.901.961 2.938.64 4.19.279 8.472-1.053 12.495Z" fill="#FBBEBE"/><path d="M453.522 94.192c-1.072 4.807-5.93 7.713-8.469 11.935-3.156 5.241-1.869 11.332-.684 17.335l-6.498 5.598c-1.196 1.026-2.392 2.058-3.679 2.965a49.001 49.001 0 0 1-5.871 3.372l-5.752 2.959a27.416 27.416 0 0 1-5.631 2.386c-3.778.97-7.791.291-11.528-.832a5.183 5.183 0 0 1-1.261-.514 2.06 2.06 0 0 1-.598-.541 3.35 3.35 0 0 1-.379-2.174c.379-6.29 1.917-12.449 3.449-18.562a72.996 72.996 0 0 1 3.294-10.764 72.72 72.72 0 0 1 4.635-8.687 58.473 58.473 0 0 1 6.786-9.854 15.806 15.806 0 0 0 3.145-4.056c.956-2.18.587-4.683.781-7.058a14.66 14.66 0 0 1 1.398-5.14v-.003a14.59 14.59 0 0 1 1.492-2.467 1847.381 1847.381 0 0 0 1.295 3.016c.221.512.44 1.022.657 1.53l1.88 4.376a18.468 18.468 0 0 0 2.854 5.087 5.565 5.565 0 0 0 7.648 1.403 5.561 5.561 0 0 0 1.872-2.133 18.184 18.184 0 0 0 1.944-5.146c.532-2.197.605-4.48.216-6.706-.649-4.287-2.472-8.666-3.797-12.649a12.77 12.77 0 0 1-.924-4.169c.003-.16.019-.32.048-.479l.025-.124a10.23 10.23 0 0 1 2.725-.845c1.166 6.312 2.334 12.624 3.503 18.937.027.148.057.296.084.447.167.904.337 1.81.525 2.712.17.818.353 1.634.558 2.445l.008.024c.07.275.142.547.218.819l.002.008c.208.743.439 1.48.701 2.208 1.583 4.381 4.343 8.792 3.328 13.34Z" fill="#F48945"/><path d="M518.004 161.745a5.63 5.63 0 0 0 .522 2.69c.994 1.817 3.38 2.23 5.445 2.4 12.06.992 24.194.622 36.172-1.102.65-.044 1.28-.24 1.841-.571 1.703-1.194.653-4.104-1.206-5.036-1.86-.931-4.067-.707-6.107-1.11a19.215 19.215 0 0 1-5.715-2.479 289.064 289.064 0 0 1-12.232-7.435c-2.392-1.536-5.215-3.175-7.908-2.264-7.296 2.468-10.86 7.036-10.812 14.907Z" fill="#3F3D56"/><path d="M429.097 71.024v.003a7.109 7.109 0 0 1-.062.334c-.03.183-.065.369-.1.552a66.657 66.657 0 0 1-1.214 5.103c-1.293 4.672-3.025 9.27-4.743 13.799l-13.833 36.438c-1.164 3.06-2.324 6.121-3.647 9.119-.441.999-.896 2.006-1.349 3.024-1.621 3.643-3.178 7.406-3.695 11.283a23.504 23.504 0 0 0-.164 7.737c.517 2.542 2.06 5.025 4.476 5.965 1.179.461 2.868 1.077 2.545 2.303-.175.673-.94 1.002-1.627 1.115a6.27 6.27 0 0 1-5.106-1.471c-1.29-1.144-2.281-2.924-3.996-3.115-1.188-.13-2.281.581-3.369 1.079-4.438 2.028-9.608.609-14.27-.832.366-1.887 2.262-3.132 4.144-3.509 1.883-.379 3.83-.11 5.75-.161a3 3 0 0 0 1.748-.45 3.17 3.17 0 0 0 .942-1.61 67.57 67.57 0 0 0 2.75-11.252c.619-3.993.878-8.049 1.761-11.994.687-3.078 1.748-6.059 2.658-9.081a192.342 192.342 0 0 0 4.33-18.894 66.731 66.731 0 0 0 1.22-8.016c.154-2.236.081-4.482.296-6.709.362-2.897.966-5.759 1.807-8.555l2.47-9.148c1.22-4.511 2.528-9.197 5.62-12.703a11.945 11.945 0 0 1 8.582-4.099c.613 0 1.225.065 1.824.197.099.024.199.048.298.075.653.17 1.279.43 1.861.77.954-.605 1.438-.393 2.071.542a5.96 5.96 0 0 1 .754 3.248 44.85 44.85 0 0 1-.732 8.913Z" fill="#FBBEBE"/><path d="m430.144 74.595-.04.04-.218.219-2.165 2.162-1.061-4.457-3.639-15.28c.614 0 1.225.065 1.824.197.026-.175.068-.347.126-.514l.173.59 1.233 4.195 2.335 7.966.385 1.311v.003l1.047 3.568Z" fill="#F48945"/><path d="M443.884 25.848a10.779 10.779 0 0 1-4.331 8.62 10.723 10.723 0 0 1-6.449 2.16h-12.92a10.774 10.774 0 0 1 0-21.55h12.92a10.811 10.811 0 0 1 10.78 10.77ZM455.997 26.66c6.098 0 11.041-4.943 11.041-11.04 0-6.099-4.943-11.042-11.041-11.042-6.098 0-11.041 4.943-11.041 11.041 0 6.098 4.943 11.041 11.041 11.041Z" fill="#2F2E41"/><path opacity=".1" d="M455.728 4.578c-.136 0-.27.005-.404.01a11.037 11.037 0 0 1 0 22.062c.134.005.268.01.404.01a11.042 11.042 0 0 0 0-22.082ZM403.215 4.578c.135 0 .269.005.404.01a11.04 11.04 0 0 0 0 22.062c-.135.005-.269.01-.404.01a11.04 11.04 0 0 1-7.801-18.845 11.04 11.04 0 0 1 7.801-3.237ZM439.553 34.468a10.723 10.723 0 0 1-6.449 2.16h-12.92a10.721 10.721 0 0 1-6.449-2.16h25.818Z" fill="#000"/><path d="M522.983 114.472s2.783 8.02 5.331 5.885l-2.031-10.484-3.3 4.599Z" fill="#FBBEBE"/><path d="M861.7 359.061a17.811 17.811 0 1 0 2.372-34.16l.446 9.168-4.338-7.857a17.746 17.746 0 0 0-9.143 10.032 17.814 17.814 0 0 0 10.663 22.817Z" fill="#57B894"/><path d="M883.162 465.392c-1.531-7.797 5.103-14.709 11.657-19.202 6.554-4.492 14.211-8.907 16.447-16.531 3.214-10.958-6.359-20.994-13.809-29.648a107.21 107.21 0 0 1-14.142-21.017c-1.55-3.023-2.974-6.183-3.382-9.556-.587-4.857.973-9.691 2.545-14.324a1035.608 1035.608 0 0 1 16.799-45.915M862.433 356.701a17.814 17.814 0 0 0 21.438-7.707 17.806 17.806 0 0 0 1.101-15.858 17.809 17.809 0 0 0-20.166-10.595l.445 9.167-4.337-7.856a17.74 17.74 0 0 0-9.143 10.032 17.444 17.444 0 0 0-1.025 4.818 17.808 17.808 0 0 0 11.687 17.999Z" stroke="#3F3D56" stroke-miterlimit="10"/><path d="M880.985 306.033a17.792 17.792 0 0 1 12.82-11.295l1.467 8.716 2.719-9.154a17.807 17.807 0 0 1 16.549 23.683 17.816 17.816 0 0 1-17.29 11.928 17.81 17.81 0 0 1-16.265-23.878Z" fill="#57B894"/><path d="M881.963 302.886a17.792 17.792 0 0 1 12.82-11.295l1.467 8.716 2.719-9.154a17.805 17.805 0 0 1 16.549 23.682 17.814 17.814 0 0 1-17.29 11.929 17.81 17.81 0 0 1-16.265-23.878Z" stroke="#3F3D56" stroke-miterlimit="10"/><path d="M894.33 400.188a17.81 17.81 0 0 0 15.764-31.685l-2.09 7.034-1.481-8.818a17.793 17.793 0 0 0-6.917-1.071 17.81 17.81 0 0 0-5.276 34.54Z" fill="#57B894"/><path d="M895.178 397a17.803 17.803 0 0 0 12.688-.207 17.804 17.804 0 0 0 10.564-21.232 17.812 17.812 0 0 0-7.489-10.246l-2.089 7.034-1.482-8.818a17.825 17.825 0 0 0-13.668.586A17.81 17.81 0 0 0 895.178 397Z" stroke="#3F3D56" stroke-miterlimit="10"/><path d="M875.787 429.767a17.802 17.802 0 1 0 3.432-13.947l7.936 11.944-10.843-6.34a17.64 17.64 0 0 0-.525 8.343Z" fill="#57B894"/><path d="M876.521 427.407a17.799 17.799 0 0 0 28.277 11.113 17.8 17.8 0 0 0-3.018-30.233 17.803 17.803 0 0 0-21.827 5.172l7.936 11.945-10.844-6.34a17.652 17.652 0 0 0-.524 8.343Z" stroke="#3F3D56" stroke-miterlimit="10"/><path d="M7.709 402.451c1.703.619 3.527.834 5.328.629a11.714 11.714 0 0 0 8.756-5.692 11.711 11.711 0 0 0 .724-10.419 11.704 11.704 0 0 0-13.25-6.962l.293 6.023-2.85-5.162a11.657 11.657 0 0 0-6.007 6.592 11.701 11.701 0 0 0 7.006 14.991Z" fill="#57B894"/><path d="M21.81 472.312c-1.006-5.122 3.353-9.664 7.659-12.616 4.305-2.952 9.337-5.852 10.806-10.861 2.111-7.2-4.178-13.793-9.073-19.479a70.465 70.465 0 0 1-9.292-13.809 19.002 19.002 0 0 1-2.222-6.278c-.386-3.192.64-6.367 1.672-9.411a680.15 680.15 0 0 1 11.037-30.167" stroke="#3F3D56" stroke-miterlimit="10"/><path d="M8.19 400.9a11.705 11.705 0 0 0 14.085-5.063 11.706 11.706 0 0 0-7.162-17.267 11.698 11.698 0 0 0-5.364-.114l.293 6.024-2.85-5.163a11.663 11.663 0 0 0-6.007 6.592A11.7 11.7 0 0 0 8.191 400.9Z" stroke="#3F3D56" stroke-miterlimit="10"/><path d="M20.38 367.611a11.686 11.686 0 0 1 8.422-7.421l.964 5.726 1.786-6.014a11.705 11.705 0 0 1 11.024 8.303 11.7 11.7 0 0 1-11.51 15.094 11.705 11.705 0 0 1-10.924-8.434 11.7 11.7 0 0 1 .237-7.254Z" fill="#57B894"/><path d="M21.022 365.543a11.686 11.686 0 0 1 8.423-7.421l.963 5.726 1.787-6.014a11.705 11.705 0 0 1 11.024 8.303 11.702 11.702 0 1 1-22.197-.594Z" stroke="#3F3D56" stroke-miterlimit="10"/><path d="M29.147 429.472a11.703 11.703 0 0 0 15.278-14.086 11.704 11.704 0 0 0-4.92-6.732l-1.373 4.622-.974-5.794a11.687 11.687 0 0 0-4.545-.704 11.713 11.713 0 0 0-10.484 7.7 11.7 11.7 0 0 0 7.018 14.994Z" fill="#57B894"/><path d="M29.704 427.377a11.703 11.703 0 0 0 14.467-5.787 11.703 11.703 0 0 0-4.11-15.03l-1.373 4.622-.973-5.794a11.696 11.696 0 0 0-8.977.389 11.7 11.7 0 0 0 .966 21.6Z" stroke="#3F3D56" stroke-miterlimit="10"/><path d="M16.964 448.906a11.699 11.699 0 0 0 11.126 9.665 11.694 11.694 0 0 0 10.975-16.674 11.697 11.697 0 0 0-19.846-2.155l5.214 7.848-7.124-4.165a11.592 11.592 0 0 0-.345 5.481Z" fill="#57B894"/><path d="M17.446 447.355a11.698 11.698 0 0 0 18.58 7.302 11.7 11.7 0 0 0 3.52-14.311 11.697 11.697 0 0 0-19.845-2.154l5.214 7.847-7.124-4.165a11.59 11.59 0 0 0-.345 5.481Z" stroke="#3F3D56" stroke-miterlimit="10"/><path d="M411.606 291.935c8.035 0 14.549-8.429 14.549-18.828 0-10.398-6.514-18.828-14.549-18.828s-14.549 8.43-14.549 18.828c0 10.399 6.514 18.828 14.549 18.828ZM490.77 292.363c8.035 0 14.549-8.429 14.549-18.828 0-10.398-6.514-18.828-14.549-18.828s-14.549 8.43-14.549 18.828c0 10.399 6.514 18.828 14.549 18.828ZM479.644 329.164c0 8.507-11.879 15.405-26.53 15.405-14.652 0-26.531-6.898-26.531-15.405 0-7.369 8.909-13.531 20.814-15.037a42.854 42.854 0 0 1 5.717-.368c3.203-.01 6.397.334 9.525 1.027 9.945 2.217 17.005 7.822 17.005 14.378Z" fill="#2F2E41"/><path d="M415.029 287.656c8.035 0 14.549-8.429 14.549-18.828 0-10.398-6.514-18.828-14.549-18.828s-14.549 8.43-14.549 18.828c0 10.399 6.514 18.828 14.549 18.828ZM494.193 288.084c8.035 0 14.549-8.429 14.549-18.828 0-10.398-6.514-18.828-14.549-18.828s-14.549 8.43-14.549 18.828c0 10.399 6.514 18.828 14.549 18.828ZM456.537 340.29c14.652 0 26.531-6.897 26.531-15.405s-11.879-15.405-26.531-15.405c-14.653 0-26.531 6.897-26.531 15.405s11.878 15.405 26.531 15.405Z" stroke="#3F3D56" stroke-miterlimit="10"/><path d="M462.956 316.07a4.229 4.229 0 0 1-1.13 2.903 3.729 3.729 0 0 1-2.722 1.205h-8.558a3.992 3.992 0 0 1-3.851-4.108 4.191 4.191 0 0 1 .702-2.346 40.197 40.197 0 0 1 5.717-.393c3.207-.01 6.404.357 9.525 1.096.211.522.319 1.08.317 1.643ZM415.029 267.972a4.279 4.279 0 1 0 .002-8.558 4.279 4.279 0 0 0-.002 8.558ZM494.621 267.972a4.279 4.279 0 1 0 0-8.557 4.279 4.279 0 0 0 0 8.557Z" fill="#fff"/><path opacity=".3" d="M498.9 308.196a4.279 4.279 0 1 0 0-8.557 4.279 4.279 0 0 0 0 8.557ZM394.49 308.196a4.28 4.28 0 1 0 0-8.559 4.28 4.28 0 0 0 0 8.559Z" fill="#F48945"/></g><defs><clipPath id="a"><path fill="#fff" d="M0 0h919.492v500H0z"/></clipPath></defs></svg>