<svg width="884" height="500" fill="none" xmlns="http://www.w3.org/2000/svg"><g clip-path="url(#a)"><path d="M753.973 317.442a5.631 5.631 0 0 0 3.705-2.991 5.65 5.65 0 0 0 .09-4.767l14.594-13.676-10.096-2.432-12.312 13.361a5.673 5.673 0 0 0 .029 10.042 5.637 5.637 0 0 0 3.99.463Z" fill="#FFB6B6"/><path d="m761.513 306.426-6.807-9.616 25.566-26.495 5.936-41.763a14.223 14.223 0 0 1 6.6-10.092 14.15 14.15 0 0 1 11.964-1.367 14.201 14.201 0 0 1 8.167 7.154 14.244 14.244 0 0 1 .739 10.845l-15.146 45.025-37.019 26.309Z" fill="#E4E4E4"/><path d="M809.515 484.374h-7.556l-3.594-29.202 11.152.001-.002 29.201Z" fill="#FFB6B6"/><path d="M813.58 498.749h-5.361l-.957-5.072-2.451 5.072h-14.22a3.191 3.191 0 0 1-3.052-2.249 3.211 3.211 0 0 1 1.235-3.589l11.356-7.858v-5.128l11.944.714 1.506 18.11Z" fill="#2F2E41"/><path d="m856.13 476.67-6.636 3.619-17.088-23.929 9.796-5.341 13.928 25.651Z" fill="#FFB6B6"/><path d="m866.558 487.35-4.709 2.568-3.26-3.997.266 5.629-12.49 6.81a3.195 3.195 0 0 1-4.68-2.283 3.21 3.21 0 0 1 .299-1.975l6.226-12.341-2.446-4.504 10.833-5.093 9.961 15.186ZM812.699 473.976h-15.615v-55.715l-9.667-36.323a208.326 208.326 0 0 1-5.429-79.733l.013-.109.084-.07c.248-.209 24.99-20.708 40.64-5.027 10.549 10.57.637 48.577.082 50.663v65.52l-10.108 60.794Z" fill="#2F2E41"/><path d="m812.66 211.274-.082-.083-19.91.304-10.63 24.999c-9.84 15.314-.431 24.024.23 25.404l-1.882 18.79-1.212 12.123-1.946 19.517 45.631-14.937-5.076-20.372 5.865-29.387a40.264 40.264 0 0 0-.936-19.562 40.206 40.206 0 0 0-10.052-16.796Z" fill="#E4E4E4"/><path d="m803.383 418.549 32.078 45.21 12.305-8.767-26.79-55.163-17.593 18.72Z" fill="#2F2E41"/><path d="M800.763 206.416c10.151 0 18.381-8.246 18.381-18.418 0-10.171-8.23-18.417-18.381-18.417-10.152 0-18.381 8.246-18.381 18.417 0 10.172 8.229 18.418 18.381 18.418Z" fill="#FFB6B6"/><path opacity=".1" d="m818.49 259.249-20.048 23.177-19.268 10.385 1.212-12.123 11.346-6.383 26.758-15.056Z" fill="#000"/><path d="m787.889 222.513-1.725-7.572a19.482 19.482 0 0 1-.161-7.712 19.478 19.478 0 0 1 2.841-7.169 13.548 13.548 0 0 0 .415-13.803 10.598 10.598 0 0 0-9.231-5.826h-.459v-.46c0-6.604 5.137-11.265 9.913-11.533.172-1.374 1.144-2.606 2.837-3.584 4.043-2.336 11.861-2.842 17.768.271a5.61 5.61 0 0 1 3.457-4.591 5.511 5.511 0 0 1 3.019-.174 6.857 6.857 0 0 1 1.92-4.414c1.631-1.583 4.247-2.185 7.179-1.654 4.026.732 7.994 3.301 11.173 7.236 2.819 3.489 4.776 7.601 6.669 11.576 1.861 3.911 3.785 7.954 6.575 11.378 3.056 3.75 6.842 6.18 10.662 6.842 4.454.772 9.026-1.065 11.118-4.468l.416-.675.378.697c2.351 4.327 1.389 10.274-2.287 14.139-3.296 3.467-8.468 5.232-13.832 4.72-4.541-.433-9.122-2.367-13.614-5.747-4.463-3.358-7.222-7.069-8.202-11.031a29.789 29.789 0 0 1-.59-3.719c-.304-2.62-.59-5.095-2.199-6.917-1.446-1.638-3.683-2.347-5.667-2.884l-.389-.104a5.101 5.101 0 0 1-2.169 3.702 3.66 3.66 0 0 1-1.184.457c2.3 9.276 1.354 16.378-2.814 21.113-7.035 7.994-20.554 6.349-21.127 6.276l-.38-.049-.02-.384a21.23 21.23 0 0 0-.376-3.068c-1.936 4.674-8.45 17.036-9.321 18.282l-.593.849Z" fill="#2F2E41"/><path d="M138.775 252.251a6.065 6.065 0 0 1-7.144 1.947 6.077 6.077 0 0 1-2.16-1.507l-19.796 8.627 1.928-11.073 18.503-6.495a6.101 6.101 0 0 1 8.103.393 6.126 6.126 0 0 1 .566 8.108Z" fill="#A0616A"/><path d="M125.565 255.709 79.586 276.23l-.099-.035-52.404-18.712a17.285 17.285 0 0 1-8.318-9.677 17.326 17.326 0 0 1 .577-12.758 17.24 17.24 0 0 1 10.583-9.376 17.222 17.222 0 0 1 14.024 1.696l38.999 23.539 37.816-4.911 4.801 9.713Z" fill="#3F3D56"/><path d="M144.828 120.594C127.446 82.07 128.087 33.24 155.063.732c9.025 45.077 33.672 85.503 69.581 114.125 13.888 10.988 30.477 21.761 34.271 39.079 2.361 10.776-.986 22.174-6.771 31.561s-13.849 17.109-21.822 24.719l-.894 2.604c-34.691-24.065-67.218-53.703-84.6-92.226Z" fill="#F0F0F0"/><path d="M155.814 1.202c-6.208 34.062-1.596 70.332 13.494 101.54 3.262 6.747 7.157 13.306 12.373 18.733a41.023 41.023 0 0 0 18.633 10.946c6.561 1.919 13.494 3.121 19.475 6.605 6.304 3.672 10.216 9.834 11.741 16.901 1.864 8.645.518 17.447-1.098 26.008-1.794 9.506-3.807 19.351-1.208 28.907.315 1.158-1.496 1.58-1.811.424-4.522-16.626 4.27-33.023 3.041-49.738-.573-7.8-3.496-15.473-10.17-19.992-5.837-3.952-12.985-5.198-19.645-7.083-6.993-1.981-13.273-5.005-18.617-10.023-5.466-5.133-9.626-11.554-13.046-18.187a161.754 161.754 0 0 1-15.488-48.04 169.765 169.765 0 0 1 .549-57.551c.214-1.177 1.99-.62 1.777.55Z" fill="#fff"/><path d="M163.869 92.857a24.885 24.885 0 0 1-17.181-.723 24.948 24.948 0 0 1-12.626-11.697c-.541-1.069 1.092-1.961 1.634-.89a23.104 23.104 0 0 0 11.754 10.886 23.043 23.043 0 0 0 15.996.61c1.137-.372 1.554 1.445.423 1.814ZM196.859 131.887a48.232 48.232 0 0 0 3.887-34.87c-.311-1.16 1.5-1.582 1.811-.424a50.169 50.169 0 0 1-4.118 36.277c-.561 1.062-2.138.072-1.58-.983ZM152.785 39.733a14.092 14.092 0 0 0 6.481-2.384 14.124 14.124 0 0 0 4.577-5.18c.548-1.069 2.124-.078 1.58.983a15.837 15.837 0 0 1-5.066 5.72 15.793 15.793 0 0 1-7.149 2.676.96.96 0 0 1-1.117-.696.937.937 0 0 1 .694-1.119Z" fill="#fff"/><path d="M297.922 1.11c-.323.676-.646 1.353-.961 2.043a186.469 186.469 0 0 0-10.608 28.274 78.351 78.351 0 0 0-.647 2.257 196.678 196.678 0 0 0-5.952 72.027 191.045 191.045 0 0 0 5.161 28.5c3.37 12.92 8.049 26.659 6.993 39.56a32.64 32.64 0 0 1-.534 4.012l-58.706 35.929c-.175.014-.341.043-.516.058l-2.279 1.542c-.159-.474-.314-.969-.474-1.442-.094-.275-.174-.557-.268-.832-.058-.185-.116-.371-.179-.535a3.786 3.786 0 0 1-.05-.172c-.063-.164-.104-.323-.159-.474a618.348 618.348 0 0 1-2.572-8.321c-.008-.014-.008-.014-.003-.035-6.342-21.236-10.971-43.188-12.126-65.147-.035-.661-.078-1.334-.086-2.011a182.317 182.317 0 0 1 1.023-29.669 161.185 161.185 0 0 1 2.749-16.037 133.87 133.87 0 0 1 15.462-38.836c14.265-24.025 36.041-43.212 62.691-50.18a97.82 97.82 0 0 1 2.041-.512Z" fill="#F0F0F0"/><path d="M298.245 1.937C272.821 25.388 254.71 57.13 248.006 91.15c-1.449 7.356-2.28 14.943-1.377 22.422a41.166 41.166 0 0 0 8.301 19.98c4.085 5.491 8.898 10.633 11.58 17.023 2.827 6.735 2.249 14.016-.78 20.577-3.707 8.028-10.071 14.243-16.505 20.104-7.144 6.508-14.667 13.154-18.333 22.352-.445 1.114-2.145.358-1.701-.754 6.379-16.003 23.252-23.791 32.314-37.878 4.229-6.574 6.506-14.464 3.892-22.098-2.285-6.676-7.244-11.983-11.428-17.507-4.394-5.799-7.591-12.003-8.843-19.233-1.28-7.396-.743-15.032.512-22.392a161.75 161.75 0 0 1 16.499-47.701 169.418 169.418 0 0 1 35.02-45.62c.878-.81 1.961.707 1.088 1.512Z" fill="#fff"/><path d="M249.603 79.977a24.937 24.937 0 0 1-13.283-10.942 25.016 25.016 0 0 1-3.053-16.956c.21-1.18 2.05-.907 1.839.275a23.172 23.172 0 0 0 2.844 15.783 23.092 23.092 0 0 0 12.406 10.136c1.131.39.372 2.092-.753 1.704ZM252.492 131.042a48.107 48.107 0 0 0 24.056-25.497c.448-1.113 2.148-.357 1.701.754a50.033 50.033 0 0 1-25.086 26.481c-1.086.509-1.751-1.232-.671-1.738ZM272.674 30.874a14.094 14.094 0 0 0 13.375.631c1.079-.522 1.743 1.22.671 1.738a15.79 15.79 0 0 1-14.799-.665.961.961 0 0 1-.474-1.229.938.938 0 0 1 1.227-.475Z" fill="#fff"/><path d="M523.017 140.828c-17.381-38.523-16.74-87.354 10.235-119.862 9.025 45.078 33.672 85.504 69.581 114.126 13.888 10.988 30.477 21.76 34.271 39.079 2.361 10.776-.986 22.174-6.771 31.561s-13.849 17.109-21.822 24.719l-.894 2.604c-34.691-24.066-67.218-53.703-84.6-92.227Z" fill="#F0F0F0"/><path d="M534.003 21.436c-6.208 34.063-1.596 70.333 13.494 101.54 3.262 6.747 7.158 13.307 12.373 18.733a41.014 41.014 0 0 0 18.633 10.946c6.561 1.92 13.494 3.122 19.475 6.606 6.304 3.672 10.217 9.834 11.741 16.9 1.865 8.646.518 17.448-1.098 26.009-1.794 9.506-3.807 19.351-1.208 28.906.315 1.158-1.496 1.58-1.811.424-4.522-16.625 4.271-33.022 3.042-49.737-.574-7.8-3.497-15.473-10.171-19.992-5.836-3.952-12.985-5.198-19.644-7.084-6.993-1.98-13.274-5.005-18.618-10.022-5.466-5.133-9.626-11.554-13.046-18.188a161.747 161.747 0 0 1-15.488-48.04 169.765 169.765 0 0 1 .549-57.55c.215-1.177 1.99-.62 1.777.55Z" fill="#fff"/><path d="M542.058 113.092a24.887 24.887 0 0 1-17.181-.723 24.948 24.948 0 0 1-12.626-11.697c-.541-1.07 1.092-1.962 1.634-.89a23.1 23.1 0 0 0 11.755 10.886 23.04 23.04 0 0 0 15.995.609c1.138-.371 1.554 1.445.423 1.815ZM575.048 152.121a48.23 48.23 0 0 0 3.887-34.87c-.311-1.159 1.501-1.581 1.811-.424a50.167 50.167 0 0 1-4.118 36.278c-.561 1.061-2.138.072-1.58-.984ZM530.974 59.968a14.095 14.095 0 0 0 6.482-2.385c1.93-1.32 3.503-3.1 4.576-5.18.548-1.068 2.124-.078 1.58.983a15.826 15.826 0 0 1-5.066 5.72 15.791 15.791 0 0 1-7.149 2.676.96.96 0 0 1-1.117-.695.937.937 0 0 1 .694-1.119Z" fill="#fff"/><path d="M676.111 21.344c-.322.677-.645 1.353-.961 2.044a186.468 186.468 0 0 0-10.608 28.274 81.699 81.699 0 0 0-.647 2.257 196.679 196.679 0 0 0-5.952 72.027 190.943 190.943 0 0 0 5.162 28.5c3.369 12.919 8.048 26.659 6.992 39.559a32.822 32.822 0 0 1-.533 4.013l-58.707 35.928c-.174.015-.341.043-.516.058l-2.279 1.542c-.159-.473-.314-.968-.474-1.442-.093-.274-.174-.557-.267-.831-.059-.185-.116-.371-.18-.535-.019-.062-.038-.124-.05-.172-.063-.164-.104-.323-.159-.474a618.489 618.489 0 0 1-2.572-8.322c-.008-.013-.008-.013-.003-.035-6.342-21.235-10.97-43.188-12.126-65.146-.035-.661-.078-1.335-.086-2.012a182.192 182.192 0 0 1 1.024-29.668 160.86 160.86 0 0 1 2.748-16.037 133.9 133.9 0 0 1 15.462-38.836c14.265-24.026 36.041-43.212 62.691-50.18a98.134 98.134 0 0 1 2.041-.512Z" fill="#F0F0F0"/><path d="M676.435 22.171c-25.424 23.452-43.536 55.194-50.239 89.214-1.45 7.355-2.281 14.943-1.377 22.422a41.155 41.155 0 0 0 8.3 19.98c4.085 5.491 8.898 10.633 11.58 17.023 2.827 6.735 2.249 14.015-.78 20.577-3.706 8.028-10.07 14.243-16.505 20.104-7.144 6.508-14.667 13.154-18.333 22.352-.445 1.114-2.144.358-1.701-.755 6.379-16.002 23.252-23.79 32.315-37.877 4.228-6.574 6.505-14.464 3.892-22.099-2.286-6.676-7.245-11.983-11.429-17.506-4.394-5.8-7.591-12.004-8.843-19.234-1.28-7.395-.743-15.032.512-22.392a161.755 161.755 0 0 1 16.5-47.7 169.392 169.392 0 0 1 35.019-45.62c.878-.81 1.961.706 1.089 1.511Z" fill="#fff"/><path d="M627.792 100.212a24.945 24.945 0 0 1-13.283-10.942 25.016 25.016 0 0 1-3.053-16.956c.21-1.18 2.051-.907 1.84.274a23.166 23.166 0 0 0 2.843 15.784 23.098 23.098 0 0 0 12.406 10.136c1.132.39.372 2.091-.753 1.704ZM630.682 151.277a48.11 48.11 0 0 0 24.056-25.497c.448-1.113 2.148-.358 1.7.754a50.04 50.04 0 0 1-25.086 26.481c-1.086.509-1.75-1.232-.67-1.738ZM650.863 51.109a14.094 14.094 0 0 0 13.375.631c1.079-.523 1.743 1.219.671 1.738a15.789 15.789 0 0 1-14.798-.665.963.963 0 0 1-.474-1.23.935.935 0 0 1 1.226-.474Z" fill="#fff"/><path d="M171.475 393.969h447.201V134.553a7.347 7.347 0 0 0-2.146-5.182 7.316 7.316 0 0 0-5.171-2.149H178.792a7.317 7.317 0 0 0-5.171 2.149 7.351 7.351 0 0 0-2.146 5.182v259.416Z" fill="#CACACA"/><path d="M604.859 137.361H185.292V376.03h419.567V137.361Z" fill="#fff"/><path d="M171.086 386.949v32.013a10.12 10.12 0 0 0 2.954 7.145 10.067 10.067 0 0 0 7.132 2.96H346.23v63.177h-2.193a1.306 1.306 0 0 0-1.21.811c-.066.159-.1.33-.1.502v4.394a1.316 1.316 0 0 0 .809 1.213c.159.066.329.1.501.1h102.466a1.31 1.31 0 0 0 1.31-1.313v-4.394a1.32 1.32 0 0 0-.808-1.213 1.31 1.31 0 0 0-.502-.1h-2.193v-63.177h165.059a10.062 10.062 0 0 0 7.131-2.96 10.098 10.098 0 0 0 2.954-7.145v-32.013H171.086Z" fill="#3F3D56"/><path d="M315.757 255.392H213.512a2.689 2.689 0 0 1-1.9-.79 2.698 2.698 0 0 1-.788-1.903V211.13a2.697 2.697 0 0 1 2.688-2.693h102.245a2.689 2.689 0 0 1 1.9.79 2.7 2.7 0 0 1 .788 1.903v41.569a2.703 2.703 0 0 1-.788 1.903 2.689 2.689 0 0 1-1.9.79Z" fill="#F48945"/><path d="M306.022 275.333h-82.775a3.222 3.222 0 0 1-2.28-.947 3.234 3.234 0 0 1 0-4.569 3.222 3.222 0 0 1 2.28-.947h82.775c4.158-.058 4.2 6.521 0 6.463ZM306.022 290.143h-82.775c-.855 0-1.675-.34-2.28-.946a3.234 3.234 0 0 1 2.28-5.517h82.775c4.158-.058 4.2 6.522 0 6.463ZM306.022 304.954h-82.775a3.222 3.222 0 0 1-2.28-.947 3.234 3.234 0 0 1 0-4.57 3.221 3.221 0 0 1 2.28-.946h82.775c4.158-.058 4.2 6.521 0 6.463Z" fill="#E4E4E4"/><path d="M446.198 255.392H343.953a2.689 2.689 0 0 1-1.9-.79 2.703 2.703 0 0 1-.788-1.903V211.13a2.7 2.7 0 0 1 .788-1.903 2.689 2.689 0 0 1 1.9-.79h102.245a2.697 2.697 0 0 1 2.688 2.693v41.569a2.698 2.698 0 0 1-.788 1.903 2.689 2.689 0 0 1-1.9.79Z" fill="#F48945"/><path d="M436.463 275.333h-82.774a3.223 3.223 0 0 1-2.281-.947 3.233 3.233 0 0 1 2.281-5.516h82.774c4.159-.058 4.2 6.521 0 6.463ZM436.463 290.143h-82.774c-.856 0-1.676-.34-2.281-.946a3.233 3.233 0 0 1 2.281-5.517h82.774c4.159-.058 4.2 6.522 0 6.463ZM436.463 304.954h-82.774a3.223 3.223 0 0 1-2.281-.947 3.233 3.233 0 0 1 2.281-5.516h82.774c4.159-.058 4.2 6.521 0 6.463Z" fill="#E4E4E4"/><path d="M576.64 255.392H474.394a2.694 2.694 0 0 1-2.687-2.693V211.13a2.692 2.692 0 0 1 2.687-2.693H576.64a2.697 2.697 0 0 1 2.687 2.693v41.569a2.698 2.698 0 0 1-.788 1.903 2.688 2.688 0 0 1-1.899.79Z" fill="#F48945"/><path d="M566.904 275.333H484.13a3.223 3.223 0 0 1-2.281-.947 3.238 3.238 0 0 1 0-4.569 3.223 3.223 0 0 1 2.281-.947h82.774c4.159-.058 4.2 6.521 0 6.463ZM566.904 290.143H484.13a3.219 3.219 0 0 1-2.277-.948 3.234 3.234 0 0 1 2.277-5.515h82.774c4.159-.058 4.2 6.522 0 6.463ZM566.904 304.954H484.13a3.223 3.223 0 0 1-2.281-.947 3.238 3.238 0 0 1 0-4.57 3.222 3.222 0 0 1 2.281-.946h82.774c4.159-.058 4.2 6.521 0 6.463Z" fill="#E4E4E4"/><path d="m751.354 208.998.28 52.104 1.139-.065 1.083 19.29-2.115.116.058 11.589 1.694-.033.343 19.307-1.928.035.918 170.022a16.826 16.826 0 0 1-4.848 11.895 16.762 16.762 0 0 1-11.818 4.988l-187.441 1.018a16.758 16.758 0 0 1-11.873-4.858 16.822 16.822 0 0 1-4.977-11.842l-1.472-272.365a16.823 16.823 0 0 1 4.849-11.895 16.755 16.755 0 0 1 11.818-4.987l187.441-1.018a16.763 16.763 0 0 1 11.87 4.86 16.83 16.83 0 0 1 4.979 11.839Z" fill="#3F3D56"/><path d="m736.431 487.535-188.101 1.022a5.172 5.172 0 0 1-3.659-1.498 5.19 5.19 0 0 1-1.534-3.65l-1.484-274.176a5.186 5.186 0 0 1 1.495-3.666 5.164 5.164 0 0 1 3.642-1.538l188.102-1.022a5.167 5.167 0 0 1 3.659 1.498 5.19 5.19 0 0 1 1.534 3.65l1.484 274.176a5.188 5.188 0 0 1-1.495 3.666 5.165 5.165 0 0 1-3.643 1.538ZM640.098 199.38a1.428 1.428 0 0 0 0-2.857c-.787 0-1.425.64-1.425 1.428 0 .789.638 1.429 1.425 1.429Z" fill="#fff"/><path d="M696.044 280.179H587.177a2.864 2.864 0 0 1-2.861-2.868V233.05c.001-.76.303-1.489.839-2.026a2.86 2.86 0 0 1 2.022-.841h108.867a2.862 2.862 0 0 1 2.023.841c.536.537.838 1.266.839 2.026v44.261a2.867 2.867 0 0 1-2.862 2.868Z" fill="#F48945"/><path d="M685.678 301.411h-88.134a3.433 3.433 0 0 1-3.434-3.441 3.432 3.432 0 0 1 3.434-3.44h88.134c4.429-.062 4.473 6.943 0 6.881ZM685.678 317.181h-88.134a3.434 3.434 0 0 1-3.429-3.441 3.434 3.434 0 0 1 3.429-3.441h88.134c4.429-.062 4.473 6.944 0 6.882ZM685.678 332.95h-88.134a3.432 3.432 0 0 1-3.434-3.44c0-.913.362-1.788 1.005-2.433a3.43 3.43 0 0 1 2.429-1.008h88.134c4.429-.062 4.473 6.944 0 6.881Z" fill="#E4E4E4"/><path d="M696.044 408.609H587.177a2.86 2.86 0 0 1-2.022-.841 2.876 2.876 0 0 1-.839-2.026V361.48c.001-.76.303-1.489.839-2.026a2.86 2.86 0 0 1 2.022-.841h108.867a2.862 2.862 0 0 1 2.023.841c.536.537.838 1.266.839 2.026v44.262a2.874 2.874 0 0 1-.839 2.026 2.862 2.862 0 0 1-2.023.841Z" fill="#F48945"/><path d="M685.678 429.841h-88.134a3.432 3.432 0 0 1-3.434-3.44c0-.913.362-1.788 1.005-2.433a3.43 3.43 0 0 1 2.429-1.008h88.134c4.429-.062 4.473 6.944 0 6.881ZM685.678 445.611h-88.134a3.434 3.434 0 0 1-3.429-3.441c0-.911.361-1.786 1.004-2.431a3.43 3.43 0 0 1 2.425-1.009h88.134c4.429-.062 4.473 6.943 0 6.881ZM685.678 461.38h-88.134a3.432 3.432 0 0 1-3.434-3.44 3.433 3.433 0 0 1 3.434-3.441h88.134c4.429-.062 4.473 6.944 0 6.881Z" fill="#E4E4E4"/><path d="m212.335 485.885-.362-150.155 1.366-.003-.066-27.617-1.366.004-.112-46.103a13.13 13.13 0 0 0-3.855-9.262 13.068 13.068 0 0 0-9.262-3.818l-97.38.236c-1.719.004-3.42.347-5.006 1.01a13.095 13.095 0 0 0-7.065 7.113 13.131 13.131 0 0 0-.984 5.02l.078 32.145-2.176.054.48 19.309 1.742-.043.01 4.26-1.853.047.48 19.308 1.42-.035.359 148.828a13.106 13.106 0 0 0 3.848 9.27 13.063 13.063 0 0 0 9.269 3.811l97.38-.236a13.09 13.09 0 0 0 9.24-3.867 13.143 13.143 0 0 0 3.815-9.276Z" fill="#3F3D56"/><path d="M98.923 493.255a6.28 6.28 0 0 1-3.01-2.295 6.304 6.304 0 0 1-1.15-3.61l-.544-226.236a6.29 6.29 0 0 1 1.826-4.447 6.264 6.264 0 0 1 4.429-1.851l20.719-.05-.256.634a7.257 7.257 0 0 0 .709 6.773 7.215 7.215 0 0 0 6.007 3.188l45.982-.111a7.313 7.313 0 0 0 5.618-3.496 7.202 7.202 0 0 0 .5-6.496l-.26-.633 21.402-.052a6.272 6.272 0 0 1 4.436 1.832 6.3 6.3 0 0 1 1.85 4.436l.52 215.849a16.703 16.703 0 0 1-4.851 11.794 16.638 16.638 0 0 1-11.747 4.916l-90.053.218a6.265 6.265 0 0 1-2.127-.363Z" fill="#fff"/><path d="M134.397 260.129c.788 0 1.426-.64 1.426-1.429a1.427 1.427 0 1 0-2.851 0c0 .789.638 1.429 1.425 1.429Z" fill="#fff"/><path d="M189.503 329.658H115.52a1.946 1.946 0 0 1-1.945-1.949V297.63a1.949 1.949 0 0 1 1.945-1.948h73.983a1.949 1.949 0 0 1 1.945 1.948v30.079a1.946 1.946 0 0 1-1.945 1.949Z" fill="#F48945"/><path d="M182.459 344.087h-59.895a2.348 2.348 0 0 1-1.653-.683 2.346 2.346 0 0 1-.507-2.551 2.346 2.346 0 0 1 1.266-1.266c.284-.117.588-.177.894-.176h59.895c3.009-.043 3.039 4.718 0 4.676ZM182.459 354.804h-59.894a2.332 2.332 0 0 1-1.65-.685 2.342 2.342 0 0 1 0-3.307 2.328 2.328 0 0 1 1.65-.685h59.894c3.009-.042 3.039 4.719 0 4.677ZM182.459 365.52h-59.895a2.328 2.328 0 0 1-2.16-1.442 2.355 2.355 0 0 1 0-1.792 2.346 2.346 0 0 1 1.266-1.265 2.31 2.31 0 0 1 .894-.177h59.895c3.009-.042 3.039 4.719 0 4.676Z" fill="#E4E4E4"/><path d="M189.503 419.794H115.52a1.945 1.945 0 0 1-1.945-1.948v-30.079a1.946 1.946 0 0 1 1.945-1.949h73.983a1.946 1.946 0 0 1 1.945 1.949v30.079a1.945 1.945 0 0 1-1.945 1.948Z" fill="#F48945"/><path d="M182.459 434.223h-59.895a2.337 2.337 0 1 1 0-4.676h59.895c3.009-.042 3.039 4.719 0 4.676ZM182.459 444.94h-59.894a2.338 2.338 0 0 1 0-4.676h59.894c3.009-.043 3.039 4.718 0 4.676ZM182.459 455.657h-59.895a2.348 2.348 0 0 1-1.653-.684 2.346 2.346 0 0 1-.507-2.551 2.337 2.337 0 0 1 2.16-1.442h59.895c3.009-.042 3.039 4.719 0 4.677Z" fill="#E4E4E4"/><path d="m24.12 491.047 8.039-.001 3.824-31.068H24.118l.002 31.069Z" fill="#A0616A"/><path d="M22.07 488.417h2.262l8.834-3.6 4.735 3.599c2.676 0 5.242 1.065 7.134 2.961a10.12 10.12 0 0 1 2.956 7.148v.329l-25.921.001v-10.438Z" fill="#2F2E41"/><path d="m55.273 485.971 7.84 1.774 10.561-29.462-11.573-2.618-6.828 30.306Z" fill="#A0616A"/><path d="m53.85 482.953 2.207.499 9.409-1.561 3.827 4.556c2.61.59 4.88 2.196 6.308 4.463a10.125 10.125 0 0 1 1.312 7.624l-.073.321-25.284-5.72 2.294-10.182ZM13.938 301.107c-3.769 11.39-3.37 23.754.906 37.023l1.828 74.711s-2.724 48.993 6.066 66.234h12.746l6.311-70.709.793-47.46 27.327 40.04-17.406 76.972 15.689 1.406 28.244-83.533-34.848-81.041-47.656-13.643Z" fill="#2F2E41"/><path d="m63.867 317.143-46.35-7.428a8.86 8.86 0 0 1-5.455-5.003 8.875 8.875 0 0 1 .241-7.405l2.102-4.213-.816-44.259a32.837 32.837 0 0 1 4.107-16.473 32.758 32.758 0 0 1 11.78-12.206l4.52-2.708 2.284-5.812 21.063.515.061 7.623 7.544 12.052v.05l-.474 65.599-2.079 6.769 3.143 7.874-1.671 5.025Z" fill="#3F3D56"/><path d="M48.74 204.409c10.57 0 19.138-8.586 19.138-19.176 0-10.591-8.568-19.176-19.138-19.176-10.57 0-19.138 8.585-19.138 19.176 0 10.59 8.569 19.176 19.138 19.176Z" fill="#A0616A"/><path d="M28.812 189.413c-.57-2.409-.309-5.8.014-8.226a23.055 23.055 0 0 1 3.168-9.03 23.014 23.014 0 0 1 6.559-6.959 7.003 7.003 0 0 1 3.49-1.39 3.017 3.017 0 0 1 3.029 1.836 6.284 6.284 0 0 1 3.543-3.52 11.05 11.05 0 0 1 5.044-.681 18.412 18.412 0 0 1 9.204 3.382 18.458 18.458 0 0 1 6.173 7.632c.51 1.217 1.939-3.278 2.586-2.128a5.106 5.106 0 0 0 2.893 2.547c1.27.355 1.785 5.594 2.284 4.372a5.832 5.832 0 0 1-2.727 7.503 5.796 5.796 0 0 1-2.83.617 31.913 31.913 0 0 1-3.803-.729 9.468 9.468 0 0 0-6.536 1.583 9.5 9.5 0 0 0-3.845 5.527 12.603 12.603 0 0 0-1.652-3.684 4.263 4.263 0 0 0-1.479-1.353 4.262 4.262 0 0 0-1.932-.525 4.784 4.784 0 0 0-3.283 1.891c-.842.991-1.475 2.148-2.324 3.134-2.49 2.892-5.858 9.639-9.408 9.147-2.8-.389-7.389-7.656-8.168-10.946Z" fill="#2F2E41"/><path d="M120.084 303.146a6.054 6.054 0 0 1-5.138-.139 6.086 6.086 0 0 1-3.192-4.036l-21.478-2.174 7.086-8.714 19.309 3.4a6.097 6.097 0 0 1 4.256.847 6.118 6.118 0 0 1 2.621 3.466c.42 1.437.3 2.979-.338 4.334a6.112 6.112 0 0 1-3.126 3.016Z" fill="#A0616A"/><path d="m106.874 299.689-50.122-4.627-.068-.079-36.58-41.998a17.322 17.322 0 0 1-2.534-12.517 17.3 17.3 0 0 1 6.73-10.846 17.21 17.21 0 0 1 20.402-.042 17.26 17.26 0 0 1 4.81 5.399l22.53 39.641 35.384 14.245-.552 10.824Z" fill="#3F3D56"/><path d="M882.581 500H1.093a1.094 1.094 0 0 1 0-2.19h881.488a1.092 1.092 0 0 1 1.093 1.095 1.096 1.096 0 0 1-1.093 1.095Z" fill="#CCC"/><path d="M729.285 304.253a5.619 5.619 0 0 0 5.808-3.644 5.645 5.645 0 0 0 .335-2.419l18.289-8.068-8.725-5.642-16.03 8.527a5.652 5.652 0 0 0-3.506 1.965 5.67 5.67 0 0 0 .216 7.521 5.651 5.651 0 0 0 3.613 1.76Z" fill="#FFB6B6"/><path d="m740.038 296.356-3.248-11.33 32.875-16.527 19.393-37.442a14.199 14.199 0 0 1 3.965-4.735 14.15 14.15 0 0 1 11.764-2.573 14.175 14.175 0 0 1 5.573 2.649 14.24 14.24 0 0 1 2.461 19.938l-29.161 37.468-43.622 12.552Z" fill="#E4E4E4"/></g><defs><clipPath id="a"><path fill="#fff" d="M0 0h883.673v500H0z"/></clipPath></defs></svg>